%TF.GenerationSoftware,KiCad,Pcbnew,6.0.4-6f826c9f35~116~ubuntu21.10.1*%
%TF.CreationDate,2022-07-26T13:19:51-06:00*%
%TF.ProjectId,Flipper_DeAuther_2,466c6970-7065-4725-9f44-654175746865,rev?*%
%TF.SameCoordinates,Original*%
%TF.FileFunction,Legend,Bot*%
%TF.FilePolarity,Positive*%
%FSLAX46Y46*%
G04 Gerber Fmt 4.6, Leading zero omitted, Abs format (unit mm)*
G04 Created by KiCad (PCBNEW 6.0.4-6f826c9f35~116~ubuntu21.10.1) date 2022-07-26 13:19:51*
%MOMM*%
%LPD*%
G01*
G04 APERTURE LIST*
%ADD10C,0.120000*%
%ADD11C,0.004000*%
G04 APERTURE END LIST*
D10*
G36*
X143184801Y-97536026D02*
G01*
X142981601Y-97536026D01*
X142981601Y-97688426D01*
X142778401Y-97688426D01*
X142778401Y-97891627D01*
X142626000Y-97891627D01*
X142626000Y-98094827D01*
X142422800Y-98094827D01*
X142422800Y-97840827D01*
X142626000Y-97840827D01*
X142626000Y-97637627D01*
X142778401Y-97485226D01*
X142981601Y-97485226D01*
X142981601Y-97282026D01*
X143184801Y-97282026D01*
X143184801Y-97536026D01*
G37*
X143184801Y-97536026D02*
X142981601Y-97536026D01*
X142981601Y-97688426D01*
X142778401Y-97688426D01*
X142778401Y-97891627D01*
X142626000Y-97891627D01*
X142626000Y-98094827D01*
X142422800Y-98094827D01*
X142422800Y-97840827D01*
X142626000Y-97840827D01*
X142626000Y-97637627D01*
X142778401Y-97485226D01*
X142981601Y-97485226D01*
X142981601Y-97282026D01*
X143184801Y-97282026D01*
X143184801Y-97536026D01*
D11*
G36*
X144933198Y-86366478D02*
G01*
X145009539Y-86373740D01*
X145086161Y-86384987D01*
X145162768Y-86400182D01*
X145239066Y-86419288D01*
X145314758Y-86442267D01*
X145389548Y-86469083D01*
X145463142Y-86499698D01*
X145535243Y-86534075D01*
X145605557Y-86572177D01*
X145650245Y-86598647D01*
X145693816Y-86626179D01*
X145736657Y-86655138D01*
X145779157Y-86685893D01*
X145821701Y-86718810D01*
X145864679Y-86754256D01*
X145908477Y-86792598D01*
X145953484Y-86834203D01*
X146000086Y-86879438D01*
X146048672Y-86928669D01*
X146153343Y-87040589D01*
X146270599Y-87172899D01*
X146403540Y-87328533D01*
X146493543Y-87433548D01*
X146536121Y-87481792D01*
X146577195Y-87527301D01*
X146616847Y-87570157D01*
X146655159Y-87610438D01*
X146692214Y-87648227D01*
X146728096Y-87683604D01*
X146762885Y-87716649D01*
X146796667Y-87747443D01*
X146829522Y-87776066D01*
X146861534Y-87802600D01*
X146892785Y-87827125D01*
X146923358Y-87849721D01*
X146953336Y-87870469D01*
X146982801Y-87889450D01*
X147024411Y-87914413D01*
X147066177Y-87937713D01*
X147108122Y-87959357D01*
X147150271Y-87979353D01*
X147192648Y-87997708D01*
X147235276Y-88014428D01*
X147278178Y-88029522D01*
X147321380Y-88042996D01*
X147364904Y-88054858D01*
X147408774Y-88065115D01*
X147453014Y-88073774D01*
X147497647Y-88080843D01*
X147542699Y-88086328D01*
X147588191Y-88090237D01*
X147634149Y-88092577D01*
X147680595Y-88093355D01*
X147729754Y-88092370D01*
X147777400Y-88089709D01*
X147823409Y-88085415D01*
X147867656Y-88079531D01*
X147910019Y-88072101D01*
X147950372Y-88063168D01*
X147988592Y-88052776D01*
X148024554Y-88040968D01*
X148058136Y-88027787D01*
X148073995Y-88020696D01*
X148089212Y-88013277D01*
X148103772Y-88005538D01*
X148117659Y-87997482D01*
X148130857Y-87989116D01*
X148143352Y-87980444D01*
X148155128Y-87971473D01*
X148166168Y-87962208D01*
X148176458Y-87952653D01*
X148185983Y-87942816D01*
X148194726Y-87932700D01*
X148202672Y-87922312D01*
X148209806Y-87911656D01*
X148216112Y-87900739D01*
X148224218Y-87884686D01*
X148231476Y-87868557D01*
X148237892Y-87852377D01*
X148243473Y-87836168D01*
X148248227Y-87819955D01*
X148252161Y-87803760D01*
X148255282Y-87787608D01*
X148257597Y-87771523D01*
X148259113Y-87755527D01*
X148259837Y-87739645D01*
X148259776Y-87723900D01*
X148258938Y-87708316D01*
X148257329Y-87692917D01*
X148254957Y-87677725D01*
X148251828Y-87662766D01*
X148247950Y-87648062D01*
X148243331Y-87633636D01*
X148237976Y-87619514D01*
X148231894Y-87605718D01*
X148225090Y-87592272D01*
X148217573Y-87579199D01*
X148209350Y-87566524D01*
X148200427Y-87554270D01*
X148190811Y-87542460D01*
X148180511Y-87531118D01*
X148169532Y-87520268D01*
X148157883Y-87509934D01*
X148145569Y-87500139D01*
X148132599Y-87490906D01*
X148118979Y-87482260D01*
X148104716Y-87474224D01*
X148089818Y-87466822D01*
X148080653Y-87462793D01*
X148071678Y-87459306D01*
X148062896Y-87456360D01*
X148054306Y-87453954D01*
X148045909Y-87452089D01*
X148037706Y-87450764D01*
X148029698Y-87449979D01*
X148021886Y-87449734D01*
X148014270Y-87450029D01*
X148006851Y-87450863D01*
X147999630Y-87452235D01*
X147992608Y-87454147D01*
X147985786Y-87456597D01*
X147979163Y-87459585D01*
X147972742Y-87463111D01*
X147966522Y-87467175D01*
X147960505Y-87471776D01*
X147954691Y-87476914D01*
X147949082Y-87482590D01*
X147943677Y-87488802D01*
X147938478Y-87495550D01*
X147933485Y-87502835D01*
X147928700Y-87510655D01*
X147924122Y-87519011D01*
X147919754Y-87527902D01*
X147915595Y-87537329D01*
X147911646Y-87547290D01*
X147907908Y-87557786D01*
X147901070Y-87580381D01*
X147895084Y-87605111D01*
X147891878Y-87618896D01*
X147888878Y-87630622D01*
X147886093Y-87640301D01*
X147883531Y-87647940D01*
X147881201Y-87653550D01*
X147880125Y-87655596D01*
X147879110Y-87657139D01*
X147878158Y-87658178D01*
X147877268Y-87658716D01*
X147876442Y-87658754D01*
X147875682Y-87658292D01*
X147874987Y-87657332D01*
X147874360Y-87655875D01*
X147873311Y-87651475D01*
X147872544Y-87645101D01*
X147872066Y-87636762D01*
X147871885Y-87626467D01*
X147872011Y-87614227D01*
X147872450Y-87600049D01*
X147873212Y-87583944D01*
X147874651Y-87563662D01*
X147876587Y-87544090D01*
X147879021Y-87525227D01*
X147881955Y-87507072D01*
X147885388Y-87489624D01*
X147889323Y-87472881D01*
X147893760Y-87456844D01*
X147898700Y-87441510D01*
X147904145Y-87426879D01*
X147910095Y-87412950D01*
X147916552Y-87399722D01*
X147923516Y-87387193D01*
X147930988Y-87375363D01*
X147938971Y-87364231D01*
X147947463Y-87353795D01*
X147956467Y-87344055D01*
X147962736Y-87337842D01*
X147968877Y-87332152D01*
X147974946Y-87326962D01*
X147980997Y-87322249D01*
X147987085Y-87317991D01*
X147993266Y-87314166D01*
X147999593Y-87310749D01*
X148006121Y-87307719D01*
X148012906Y-87305053D01*
X148020002Y-87302728D01*
X148027464Y-87300721D01*
X148035347Y-87299010D01*
X148043705Y-87297572D01*
X148052593Y-87296383D01*
X148062066Y-87295423D01*
X148072179Y-87294666D01*
X148084020Y-87294098D01*
X148095763Y-87293987D01*
X148107461Y-87294345D01*
X148119165Y-87295185D01*
X148130926Y-87296516D01*
X148142798Y-87298350D01*
X148154831Y-87300699D01*
X148167076Y-87303574D01*
X148179586Y-87306987D01*
X148192413Y-87310948D01*
X148205607Y-87315469D01*
X148219221Y-87320563D01*
X148233306Y-87326239D01*
X148247915Y-87332509D01*
X148263098Y-87339385D01*
X148278907Y-87346878D01*
X148299175Y-87357307D01*
X148318451Y-87368499D01*
X148336752Y-87380472D01*
X148354093Y-87393246D01*
X148370491Y-87406838D01*
X148385964Y-87421267D01*
X148400527Y-87436552D01*
X148414197Y-87452711D01*
X148426991Y-87469763D01*
X148438925Y-87487727D01*
X148450015Y-87506621D01*
X148460279Y-87526463D01*
X148469732Y-87547273D01*
X148478392Y-87569070D01*
X148486274Y-87591870D01*
X148493396Y-87615694D01*
X148496885Y-87630135D01*
X148499942Y-87646557D01*
X148502564Y-87664690D01*
X148504751Y-87684265D01*
X148506499Y-87705015D01*
X148507807Y-87726670D01*
X148509094Y-87771622D01*
X148508595Y-87816970D01*
X148506294Y-87860566D01*
X148504462Y-87881035D01*
X148502174Y-87900259D01*
X148499426Y-87917970D01*
X148496218Y-87933900D01*
X148476810Y-88006795D01*
X148451981Y-88077262D01*
X148421818Y-88145220D01*
X148386405Y-88210588D01*
X148345828Y-88273285D01*
X148300174Y-88333230D01*
X148249528Y-88390344D01*
X148193975Y-88444545D01*
X148133603Y-88495754D01*
X148068495Y-88543888D01*
X147998739Y-88588868D01*
X147924420Y-88630614D01*
X147845624Y-88669043D01*
X147762436Y-88704077D01*
X147674943Y-88735634D01*
X147583230Y-88763633D01*
X147527617Y-88778243D01*
X147470082Y-88791380D01*
X147410669Y-88803043D01*
X147349426Y-88813232D01*
X147286397Y-88821944D01*
X147221627Y-88829180D01*
X147087048Y-88839216D01*
X146946052Y-88843332D01*
X146799004Y-88841520D01*
X146646268Y-88833771D01*
X146488207Y-88820078D01*
X146401644Y-88810142D01*
X146307011Y-88797610D01*
X146207418Y-88782995D01*
X146105972Y-88766808D01*
X146005783Y-88749563D01*
X145909960Y-88731773D01*
X145821611Y-88713949D01*
X145743845Y-88696605D01*
X145649247Y-88672414D01*
X145553071Y-88644693D01*
X145455756Y-88613651D01*
X145357741Y-88579494D01*
X145259466Y-88542431D01*
X145161370Y-88502670D01*
X145063891Y-88460418D01*
X144967470Y-88415882D01*
X144872545Y-88369272D01*
X144779557Y-88320794D01*
X144688943Y-88270656D01*
X144601143Y-88219065D01*
X144516597Y-88166231D01*
X144435744Y-88112360D01*
X144359023Y-88057660D01*
X144286873Y-88002339D01*
X144270509Y-87988975D01*
X144253061Y-87974176D01*
X144215866Y-87941209D01*
X144177200Y-87905315D01*
X144138971Y-87868371D01*
X144103092Y-87832254D01*
X144071470Y-87798841D01*
X144057852Y-87783735D01*
X144046016Y-87770008D01*
X144036199Y-87757896D01*
X144028640Y-87747633D01*
X144023169Y-87739919D01*
X144017947Y-87732750D01*
X144013088Y-87726276D01*
X144010831Y-87723346D01*
X144008708Y-87720646D01*
X144006734Y-87718193D01*
X144004924Y-87716007D01*
X144003291Y-87714106D01*
X144001851Y-87712510D01*
X144000617Y-87711235D01*
X143999605Y-87710302D01*
X143999186Y-87709969D01*
X143998828Y-87709728D01*
X143998533Y-87709582D01*
X143998301Y-87709533D01*
X143997758Y-87709861D01*
X143996936Y-87710567D01*
X143994520Y-87713039D01*
X143991195Y-87716801D01*
X143987100Y-87721704D01*
X143982378Y-87727599D01*
X143977168Y-87734338D01*
X143971610Y-87741771D01*
X143965846Y-87749750D01*
X143957788Y-87760412D01*
X143948018Y-87772438D01*
X143924030Y-87799888D01*
X143895264Y-87830712D01*
X143863099Y-87863521D01*
X143828917Y-87896924D01*
X143794098Y-87929534D01*
X143760023Y-87959961D01*
X143728073Y-87986816D01*
X143666792Y-88034923D01*
X143602653Y-88082348D01*
X143535822Y-88129003D01*
X143466467Y-88174803D01*
X143394755Y-88219660D01*
X143320855Y-88263488D01*
X143244933Y-88306200D01*
X143167157Y-88347708D01*
X143087694Y-88387927D01*
X143006712Y-88426769D01*
X142924378Y-88464148D01*
X142840859Y-88499976D01*
X142756324Y-88534167D01*
X142670939Y-88566634D01*
X142584872Y-88597291D01*
X142498290Y-88626050D01*
X142438384Y-88644689D01*
X142380595Y-88661658D01*
X142323665Y-88677272D01*
X142266339Y-88691843D01*
X142207359Y-88705687D01*
X142145468Y-88719117D01*
X142079410Y-88732448D01*
X142007929Y-88745994D01*
X141867030Y-88770559D01*
X141731041Y-88791596D01*
X141599813Y-88809104D01*
X141473195Y-88823076D01*
X141351038Y-88833510D01*
X141233192Y-88840401D01*
X141119506Y-88843745D01*
X141009832Y-88843537D01*
X140904020Y-88839774D01*
X140801918Y-88832452D01*
X140703378Y-88821566D01*
X140608250Y-88807113D01*
X140516384Y-88789087D01*
X140427629Y-88767486D01*
X140341837Y-88742304D01*
X140258857Y-88713539D01*
X140182591Y-88683087D01*
X140109929Y-88649971D01*
X140040923Y-88614241D01*
X139975620Y-88575944D01*
X139914072Y-88535130D01*
X139856326Y-88491847D01*
X139802434Y-88446143D01*
X139752444Y-88398067D01*
X139706407Y-88347668D01*
X139664371Y-88294994D01*
X139626387Y-88240094D01*
X139592504Y-88183016D01*
X139562771Y-88123809D01*
X139537239Y-88062522D01*
X139515956Y-87999202D01*
X139498973Y-87933900D01*
X139495765Y-87917970D01*
X139493017Y-87900259D01*
X139490729Y-87881035D01*
X139488897Y-87860566D01*
X139487520Y-87839122D01*
X139486596Y-87816970D01*
X139486097Y-87771622D01*
X139487384Y-87726670D01*
X139488692Y-87705015D01*
X139490441Y-87684265D01*
X139492627Y-87664690D01*
X139495250Y-87646557D01*
X139498307Y-87630135D01*
X139501796Y-87615694D01*
X139508917Y-87591870D01*
X139516800Y-87569070D01*
X139525459Y-87547273D01*
X139534913Y-87526463D01*
X139545176Y-87506621D01*
X139556267Y-87487727D01*
X139568200Y-87469763D01*
X139580994Y-87452711D01*
X139594664Y-87436552D01*
X139609227Y-87421267D01*
X139624700Y-87406838D01*
X139641099Y-87393246D01*
X139658440Y-87380472D01*
X139676740Y-87368499D01*
X139696016Y-87357307D01*
X139716284Y-87346878D01*
X139735302Y-87337950D01*
X139753857Y-87329821D01*
X139771952Y-87322490D01*
X139789588Y-87315959D01*
X139806766Y-87310226D01*
X139823487Y-87305294D01*
X139839753Y-87301162D01*
X139855566Y-87297830D01*
X139870925Y-87295300D01*
X139885833Y-87293571D01*
X139900291Y-87292643D01*
X139914300Y-87292518D01*
X139927862Y-87293195D01*
X139940977Y-87294676D01*
X139953648Y-87296959D01*
X139965875Y-87300046D01*
X139977659Y-87303938D01*
X139989003Y-87308633D01*
X139999906Y-87314134D01*
X140010372Y-87320440D01*
X140020400Y-87327551D01*
X140029992Y-87335469D01*
X140039149Y-87344193D01*
X140047874Y-87353724D01*
X140056166Y-87364062D01*
X140064027Y-87375207D01*
X140071459Y-87387161D01*
X140078463Y-87399922D01*
X140085040Y-87413493D01*
X140091192Y-87427873D01*
X140096919Y-87443062D01*
X140102223Y-87459061D01*
X140105344Y-87470156D01*
X140108334Y-87483097D01*
X140111162Y-87497530D01*
X140113799Y-87513102D01*
X140116212Y-87529460D01*
X140118371Y-87546249D01*
X140121803Y-87579711D01*
X140123013Y-87595676D01*
X140123845Y-87610659D01*
X140124267Y-87624307D01*
X140124250Y-87636266D01*
X140123761Y-87646182D01*
X140122770Y-87653703D01*
X140122076Y-87656455D01*
X140121245Y-87658475D01*
X140120274Y-87659720D01*
X140119157Y-87660144D01*
X140118812Y-87660072D01*
X140118439Y-87659860D01*
X140117615Y-87659024D01*
X140116693Y-87657665D01*
X140115684Y-87655812D01*
X140114596Y-87653491D01*
X140113439Y-87650731D01*
X140110955Y-87644005D01*
X140108305Y-87635856D01*
X140105564Y-87626509D01*
X140102806Y-87616186D01*
X140100107Y-87605111D01*
X140095735Y-87586725D01*
X140090830Y-87569413D01*
X140085404Y-87553190D01*
X140082499Y-87545492D01*
X140079469Y-87538072D01*
X140076315Y-87530932D01*
X140073039Y-87524074D01*
X140069641Y-87517501D01*
X140066124Y-87511213D01*
X140062490Y-87505213D01*
X140058739Y-87499502D01*
X140054873Y-87494084D01*
X140050894Y-87488959D01*
X140046804Y-87484129D01*
X140042603Y-87479598D01*
X140038294Y-87475365D01*
X140033878Y-87471434D01*
X140029357Y-87467807D01*
X140024731Y-87464484D01*
X140020004Y-87461469D01*
X140015175Y-87458763D01*
X140010248Y-87456368D01*
X140005223Y-87454286D01*
X140000101Y-87452520D01*
X139994885Y-87451070D01*
X139989576Y-87449938D01*
X139984176Y-87449128D01*
X139978685Y-87448641D01*
X139973107Y-87448478D01*
X139967660Y-87448637D01*
X139962046Y-87449111D01*
X139956277Y-87449890D01*
X139950369Y-87450965D01*
X139938188Y-87453970D01*
X139925614Y-87458058D01*
X139912759Y-87463158D01*
X139899734Y-87469202D01*
X139886652Y-87476120D01*
X139873623Y-87483843D01*
X139860760Y-87492303D01*
X139848174Y-87501429D01*
X139835976Y-87511152D01*
X139824279Y-87521403D01*
X139813193Y-87532113D01*
X139802831Y-87543213D01*
X139793304Y-87554634D01*
X139784723Y-87566305D01*
X139774132Y-87583213D01*
X139764851Y-87601059D01*
X139756882Y-87619741D01*
X139750228Y-87639154D01*
X139744894Y-87659195D01*
X139740881Y-87679762D01*
X139738193Y-87700750D01*
X139736834Y-87722057D01*
X139736805Y-87743578D01*
X139738111Y-87765211D01*
X139740754Y-87786853D01*
X139744738Y-87808399D01*
X139750065Y-87829747D01*
X139756740Y-87850793D01*
X139764763Y-87871434D01*
X139774140Y-87891566D01*
X139783269Y-87907673D01*
X139793988Y-87923184D01*
X139806301Y-87938100D01*
X139820211Y-87952421D01*
X139835720Y-87966146D01*
X139852833Y-87979276D01*
X139871552Y-87991810D01*
X139891880Y-88003750D01*
X139913820Y-88015094D01*
X139937376Y-88025842D01*
X139962550Y-88035996D01*
X139989345Y-88045554D01*
X140017766Y-88054517D01*
X140047814Y-88062884D01*
X140079493Y-88070656D01*
X140112807Y-88077833D01*
X140131816Y-88081322D01*
X140152930Y-88084380D01*
X140200296Y-88089199D01*
X140252556Y-88092282D01*
X140307364Y-88093620D01*
X140362369Y-88093205D01*
X140415225Y-88091029D01*
X140463584Y-88087084D01*
X140485342Y-88084445D01*
X140505096Y-88081361D01*
X140540915Y-88074470D01*
X140575913Y-88067010D01*
X140610147Y-88058959D01*
X140643671Y-88050294D01*
X140676543Y-88040993D01*
X140708817Y-88031032D01*
X140740549Y-88020389D01*
X140771796Y-88009041D01*
X140802612Y-87996966D01*
X140833055Y-87984140D01*
X140863179Y-87970542D01*
X140893041Y-87956147D01*
X140922696Y-87940934D01*
X140952200Y-87924879D01*
X140981609Y-87907961D01*
X141010979Y-87890155D01*
X141042698Y-87869889D01*
X141074228Y-87848380D01*
X141105779Y-87825426D01*
X141137560Y-87800825D01*
X141169779Y-87774377D01*
X141202645Y-87745879D01*
X141236366Y-87715130D01*
X141271152Y-87681928D01*
X141344753Y-87607361D01*
X141425118Y-87520565D01*
X141513916Y-87419929D01*
X141612818Y-87303839D01*
X141695689Y-87206589D01*
X141775195Y-87115731D01*
X141850881Y-87031769D01*
X141922292Y-86955206D01*
X141988974Y-86886548D01*
X142050472Y-86826299D01*
X142079134Y-86799485D01*
X142106330Y-86774963D01*
X142132003Y-86752795D01*
X142156095Y-86733044D01*
X142183518Y-86711716D01*
X142211728Y-86690641D01*
X142270032Y-86649535D01*
X142330038Y-86610298D01*
X142390781Y-86573500D01*
X142451292Y-86539712D01*
X142481158Y-86524125D01*
X142510604Y-86509504D01*
X142539508Y-86495921D01*
X142567750Y-86483447D01*
X142595208Y-86472153D01*
X142621762Y-86462111D01*
X142675336Y-86443518D01*
X142725181Y-86427671D01*
X142773257Y-86414139D01*
X142821523Y-86402491D01*
X142871938Y-86392299D01*
X142926463Y-86383133D01*
X142987057Y-86374561D01*
X143055679Y-86366155D01*
X143069867Y-86365417D01*
X143092456Y-86364480D01*
X143120469Y-86363675D01*
X143150929Y-86363333D01*
X143209084Y-86363811D01*
X143266059Y-86366826D01*
X143321830Y-86372370D01*
X143376376Y-86380432D01*
X143429673Y-86391003D01*
X143481699Y-86404075D01*
X143532432Y-86419637D01*
X143581847Y-86437681D01*
X143629923Y-86458197D01*
X143676637Y-86481176D01*
X143721966Y-86506609D01*
X143765887Y-86534485D01*
X143808377Y-86564797D01*
X143849415Y-86597535D01*
X143888977Y-86632689D01*
X143927040Y-86670250D01*
X143997595Y-86742922D01*
X144068151Y-86670250D01*
X144088262Y-86649867D01*
X144108652Y-86630251D01*
X144129335Y-86611391D01*
X144150326Y-86593278D01*
X144171640Y-86575901D01*
X144193291Y-86559249D01*
X144215293Y-86543312D01*
X144237661Y-86528080D01*
X144260409Y-86513543D01*
X144283552Y-86499690D01*
X144307105Y-86486511D01*
X144331081Y-86473995D01*
X144355495Y-86462133D01*
X144380362Y-86450913D01*
X144405696Y-86440326D01*
X144431512Y-86430361D01*
X144497609Y-86408684D01*
X144566056Y-86391252D01*
X144636557Y-86378029D01*
X144708818Y-86368977D01*
X144782542Y-86364060D01*
X144857434Y-86363239D01*
X144933198Y-86366478D01*
G37*
X144933198Y-86366478D02*
X145009539Y-86373740D01*
X145086161Y-86384987D01*
X145162768Y-86400182D01*
X145239066Y-86419288D01*
X145314758Y-86442267D01*
X145389548Y-86469083D01*
X145463142Y-86499698D01*
X145535243Y-86534075D01*
X145605557Y-86572177D01*
X145650245Y-86598647D01*
X145693816Y-86626179D01*
X145736657Y-86655138D01*
X145779157Y-86685893D01*
X145821701Y-86718810D01*
X145864679Y-86754256D01*
X145908477Y-86792598D01*
X145953484Y-86834203D01*
X146000086Y-86879438D01*
X146048672Y-86928669D01*
X146153343Y-87040589D01*
X146270599Y-87172899D01*
X146403540Y-87328533D01*
X146493543Y-87433548D01*
X146536121Y-87481792D01*
X146577195Y-87527301D01*
X146616847Y-87570157D01*
X146655159Y-87610438D01*
X146692214Y-87648227D01*
X146728096Y-87683604D01*
X146762885Y-87716649D01*
X146796667Y-87747443D01*
X146829522Y-87776066D01*
X146861534Y-87802600D01*
X146892785Y-87827125D01*
X146923358Y-87849721D01*
X146953336Y-87870469D01*
X146982801Y-87889450D01*
X147024411Y-87914413D01*
X147066177Y-87937713D01*
X147108122Y-87959357D01*
X147150271Y-87979353D01*
X147192648Y-87997708D01*
X147235276Y-88014428D01*
X147278178Y-88029522D01*
X147321380Y-88042996D01*
X147364904Y-88054858D01*
X147408774Y-88065115D01*
X147453014Y-88073774D01*
X147497647Y-88080843D01*
X147542699Y-88086328D01*
X147588191Y-88090237D01*
X147634149Y-88092577D01*
X147680595Y-88093355D01*
X147729754Y-88092370D01*
X147777400Y-88089709D01*
X147823409Y-88085415D01*
X147867656Y-88079531D01*
X147910019Y-88072101D01*
X147950372Y-88063168D01*
X147988592Y-88052776D01*
X148024554Y-88040968D01*
X148058136Y-88027787D01*
X148073995Y-88020696D01*
X148089212Y-88013277D01*
X148103772Y-88005538D01*
X148117659Y-87997482D01*
X148130857Y-87989116D01*
X148143352Y-87980444D01*
X148155128Y-87971473D01*
X148166168Y-87962208D01*
X148176458Y-87952653D01*
X148185983Y-87942816D01*
X148194726Y-87932700D01*
X148202672Y-87922312D01*
X148209806Y-87911656D01*
X148216112Y-87900739D01*
X148224218Y-87884686D01*
X148231476Y-87868557D01*
X148237892Y-87852377D01*
X148243473Y-87836168D01*
X148248227Y-87819955D01*
X148252161Y-87803760D01*
X148255282Y-87787608D01*
X148257597Y-87771523D01*
X148259113Y-87755527D01*
X148259837Y-87739645D01*
X148259776Y-87723900D01*
X148258938Y-87708316D01*
X148257329Y-87692917D01*
X148254957Y-87677725D01*
X148251828Y-87662766D01*
X148247950Y-87648062D01*
X148243331Y-87633636D01*
X148237976Y-87619514D01*
X148231894Y-87605718D01*
X148225090Y-87592272D01*
X148217573Y-87579199D01*
X148209350Y-87566524D01*
X148200427Y-87554270D01*
X148190811Y-87542460D01*
X148180511Y-87531118D01*
X148169532Y-87520268D01*
X148157883Y-87509934D01*
X148145569Y-87500139D01*
X148132599Y-87490906D01*
X148118979Y-87482260D01*
X148104716Y-87474224D01*
X148089818Y-87466822D01*
X148080653Y-87462793D01*
X148071678Y-87459306D01*
X148062896Y-87456360D01*
X148054306Y-87453954D01*
X148045909Y-87452089D01*
X148037706Y-87450764D01*
X148029698Y-87449979D01*
X148021886Y-87449734D01*
X148014270Y-87450029D01*
X148006851Y-87450863D01*
X147999630Y-87452235D01*
X147992608Y-87454147D01*
X147985786Y-87456597D01*
X147979163Y-87459585D01*
X147972742Y-87463111D01*
X147966522Y-87467175D01*
X147960505Y-87471776D01*
X147954691Y-87476914D01*
X147949082Y-87482590D01*
X147943677Y-87488802D01*
X147938478Y-87495550D01*
X147933485Y-87502835D01*
X147928700Y-87510655D01*
X147924122Y-87519011D01*
X147919754Y-87527902D01*
X147915595Y-87537329D01*
X147911646Y-87547290D01*
X147907908Y-87557786D01*
X147901070Y-87580381D01*
X147895084Y-87605111D01*
X147891878Y-87618896D01*
X147888878Y-87630622D01*
X147886093Y-87640301D01*
X147883531Y-87647940D01*
X147881201Y-87653550D01*
X147880125Y-87655596D01*
X147879110Y-87657139D01*
X147878158Y-87658178D01*
X147877268Y-87658716D01*
X147876442Y-87658754D01*
X147875682Y-87658292D01*
X147874987Y-87657332D01*
X147874360Y-87655875D01*
X147873311Y-87651475D01*
X147872544Y-87645101D01*
X147872066Y-87636762D01*
X147871885Y-87626467D01*
X147872011Y-87614227D01*
X147872450Y-87600049D01*
X147873212Y-87583944D01*
X147874651Y-87563662D01*
X147876587Y-87544090D01*
X147879021Y-87525227D01*
X147881955Y-87507072D01*
X147885388Y-87489624D01*
X147889323Y-87472881D01*
X147893760Y-87456844D01*
X147898700Y-87441510D01*
X147904145Y-87426879D01*
X147910095Y-87412950D01*
X147916552Y-87399722D01*
X147923516Y-87387193D01*
X147930988Y-87375363D01*
X147938971Y-87364231D01*
X147947463Y-87353795D01*
X147956467Y-87344055D01*
X147962736Y-87337842D01*
X147968877Y-87332152D01*
X147974946Y-87326962D01*
X147980997Y-87322249D01*
X147987085Y-87317991D01*
X147993266Y-87314166D01*
X147999593Y-87310749D01*
X148006121Y-87307719D01*
X148012906Y-87305053D01*
X148020002Y-87302728D01*
X148027464Y-87300721D01*
X148035347Y-87299010D01*
X148043705Y-87297572D01*
X148052593Y-87296383D01*
X148062066Y-87295423D01*
X148072179Y-87294666D01*
X148084020Y-87294098D01*
X148095763Y-87293987D01*
X148107461Y-87294345D01*
X148119165Y-87295185D01*
X148130926Y-87296516D01*
X148142798Y-87298350D01*
X148154831Y-87300699D01*
X148167076Y-87303574D01*
X148179586Y-87306987D01*
X148192413Y-87310948D01*
X148205607Y-87315469D01*
X148219221Y-87320563D01*
X148233306Y-87326239D01*
X148247915Y-87332509D01*
X148263098Y-87339385D01*
X148278907Y-87346878D01*
X148299175Y-87357307D01*
X148318451Y-87368499D01*
X148336752Y-87380472D01*
X148354093Y-87393246D01*
X148370491Y-87406838D01*
X148385964Y-87421267D01*
X148400527Y-87436552D01*
X148414197Y-87452711D01*
X148426991Y-87469763D01*
X148438925Y-87487727D01*
X148450015Y-87506621D01*
X148460279Y-87526463D01*
X148469732Y-87547273D01*
X148478392Y-87569070D01*
X148486274Y-87591870D01*
X148493396Y-87615694D01*
X148496885Y-87630135D01*
X148499942Y-87646557D01*
X148502564Y-87664690D01*
X148504751Y-87684265D01*
X148506499Y-87705015D01*
X148507807Y-87726670D01*
X148509094Y-87771622D01*
X148508595Y-87816970D01*
X148506294Y-87860566D01*
X148504462Y-87881035D01*
X148502174Y-87900259D01*
X148499426Y-87917970D01*
X148496218Y-87933900D01*
X148476810Y-88006795D01*
X148451981Y-88077262D01*
X148421818Y-88145220D01*
X148386405Y-88210588D01*
X148345828Y-88273285D01*
X148300174Y-88333230D01*
X148249528Y-88390344D01*
X148193975Y-88444545D01*
X148133603Y-88495754D01*
X148068495Y-88543888D01*
X147998739Y-88588868D01*
X147924420Y-88630614D01*
X147845624Y-88669043D01*
X147762436Y-88704077D01*
X147674943Y-88735634D01*
X147583230Y-88763633D01*
X147527617Y-88778243D01*
X147470082Y-88791380D01*
X147410669Y-88803043D01*
X147349426Y-88813232D01*
X147286397Y-88821944D01*
X147221627Y-88829180D01*
X147087048Y-88839216D01*
X146946052Y-88843332D01*
X146799004Y-88841520D01*
X146646268Y-88833771D01*
X146488207Y-88820078D01*
X146401644Y-88810142D01*
X146307011Y-88797610D01*
X146207418Y-88782995D01*
X146105972Y-88766808D01*
X146005783Y-88749563D01*
X145909960Y-88731773D01*
X145821611Y-88713949D01*
X145743845Y-88696605D01*
X145649247Y-88672414D01*
X145553071Y-88644693D01*
X145455756Y-88613651D01*
X145357741Y-88579494D01*
X145259466Y-88542431D01*
X145161370Y-88502670D01*
X145063891Y-88460418D01*
X144967470Y-88415882D01*
X144872545Y-88369272D01*
X144779557Y-88320794D01*
X144688943Y-88270656D01*
X144601143Y-88219065D01*
X144516597Y-88166231D01*
X144435744Y-88112360D01*
X144359023Y-88057660D01*
X144286873Y-88002339D01*
X144270509Y-87988975D01*
X144253061Y-87974176D01*
X144215866Y-87941209D01*
X144177200Y-87905315D01*
X144138971Y-87868371D01*
X144103092Y-87832254D01*
X144071470Y-87798841D01*
X144057852Y-87783735D01*
X144046016Y-87770008D01*
X144036199Y-87757896D01*
X144028640Y-87747633D01*
X144023169Y-87739919D01*
X144017947Y-87732750D01*
X144013088Y-87726276D01*
X144010831Y-87723346D01*
X144008708Y-87720646D01*
X144006734Y-87718193D01*
X144004924Y-87716007D01*
X144003291Y-87714106D01*
X144001851Y-87712510D01*
X144000617Y-87711235D01*
X143999605Y-87710302D01*
X143999186Y-87709969D01*
X143998828Y-87709728D01*
X143998533Y-87709582D01*
X143998301Y-87709533D01*
X143997758Y-87709861D01*
X143996936Y-87710567D01*
X143994520Y-87713039D01*
X143991195Y-87716801D01*
X143987100Y-87721704D01*
X143982378Y-87727599D01*
X143977168Y-87734338D01*
X143971610Y-87741771D01*
X143965846Y-87749750D01*
X143957788Y-87760412D01*
X143948018Y-87772438D01*
X143924030Y-87799888D01*
X143895264Y-87830712D01*
X143863099Y-87863521D01*
X143828917Y-87896924D01*
X143794098Y-87929534D01*
X143760023Y-87959961D01*
X143728073Y-87986816D01*
X143666792Y-88034923D01*
X143602653Y-88082348D01*
X143535822Y-88129003D01*
X143466467Y-88174803D01*
X143394755Y-88219660D01*
X143320855Y-88263488D01*
X143244933Y-88306200D01*
X143167157Y-88347708D01*
X143087694Y-88387927D01*
X143006712Y-88426769D01*
X142924378Y-88464148D01*
X142840859Y-88499976D01*
X142756324Y-88534167D01*
X142670939Y-88566634D01*
X142584872Y-88597291D01*
X142498290Y-88626050D01*
X142438384Y-88644689D01*
X142380595Y-88661658D01*
X142323665Y-88677272D01*
X142266339Y-88691843D01*
X142207359Y-88705687D01*
X142145468Y-88719117D01*
X142079410Y-88732448D01*
X142007929Y-88745994D01*
X141867030Y-88770559D01*
X141731041Y-88791596D01*
X141599813Y-88809104D01*
X141473195Y-88823076D01*
X141351038Y-88833510D01*
X141233192Y-88840401D01*
X141119506Y-88843745D01*
X141009832Y-88843537D01*
X140904020Y-88839774D01*
X140801918Y-88832452D01*
X140703378Y-88821566D01*
X140608250Y-88807113D01*
X140516384Y-88789087D01*
X140427629Y-88767486D01*
X140341837Y-88742304D01*
X140258857Y-88713539D01*
X140182591Y-88683087D01*
X140109929Y-88649971D01*
X140040923Y-88614241D01*
X139975620Y-88575944D01*
X139914072Y-88535130D01*
X139856326Y-88491847D01*
X139802434Y-88446143D01*
X139752444Y-88398067D01*
X139706407Y-88347668D01*
X139664371Y-88294994D01*
X139626387Y-88240094D01*
X139592504Y-88183016D01*
X139562771Y-88123809D01*
X139537239Y-88062522D01*
X139515956Y-87999202D01*
X139498973Y-87933900D01*
X139495765Y-87917970D01*
X139493017Y-87900259D01*
X139490729Y-87881035D01*
X139488897Y-87860566D01*
X139487520Y-87839122D01*
X139486596Y-87816970D01*
X139486097Y-87771622D01*
X139487384Y-87726670D01*
X139488692Y-87705015D01*
X139490441Y-87684265D01*
X139492627Y-87664690D01*
X139495250Y-87646557D01*
X139498307Y-87630135D01*
X139501796Y-87615694D01*
X139508917Y-87591870D01*
X139516800Y-87569070D01*
X139525459Y-87547273D01*
X139534913Y-87526463D01*
X139545176Y-87506621D01*
X139556267Y-87487727D01*
X139568200Y-87469763D01*
X139580994Y-87452711D01*
X139594664Y-87436552D01*
X139609227Y-87421267D01*
X139624700Y-87406838D01*
X139641099Y-87393246D01*
X139658440Y-87380472D01*
X139676740Y-87368499D01*
X139696016Y-87357307D01*
X139716284Y-87346878D01*
X139735302Y-87337950D01*
X139753857Y-87329821D01*
X139771952Y-87322490D01*
X139789588Y-87315959D01*
X139806766Y-87310226D01*
X139823487Y-87305294D01*
X139839753Y-87301162D01*
X139855566Y-87297830D01*
X139870925Y-87295300D01*
X139885833Y-87293571D01*
X139900291Y-87292643D01*
X139914300Y-87292518D01*
X139927862Y-87293195D01*
X139940977Y-87294676D01*
X139953648Y-87296959D01*
X139965875Y-87300046D01*
X139977659Y-87303938D01*
X139989003Y-87308633D01*
X139999906Y-87314134D01*
X140010372Y-87320440D01*
X140020400Y-87327551D01*
X140029992Y-87335469D01*
X140039149Y-87344193D01*
X140047874Y-87353724D01*
X140056166Y-87364062D01*
X140064027Y-87375207D01*
X140071459Y-87387161D01*
X140078463Y-87399922D01*
X140085040Y-87413493D01*
X140091192Y-87427873D01*
X140096919Y-87443062D01*
X140102223Y-87459061D01*
X140105344Y-87470156D01*
X140108334Y-87483097D01*
X140111162Y-87497530D01*
X140113799Y-87513102D01*
X140116212Y-87529460D01*
X140118371Y-87546249D01*
X140121803Y-87579711D01*
X140123013Y-87595676D01*
X140123845Y-87610659D01*
X140124267Y-87624307D01*
X140124250Y-87636266D01*
X140123761Y-87646182D01*
X140122770Y-87653703D01*
X140122076Y-87656455D01*
X140121245Y-87658475D01*
X140120274Y-87659720D01*
X140119157Y-87660144D01*
X140118812Y-87660072D01*
X140118439Y-87659860D01*
X140117615Y-87659024D01*
X140116693Y-87657665D01*
X140115684Y-87655812D01*
X140114596Y-87653491D01*
X140113439Y-87650731D01*
X140110955Y-87644005D01*
X140108305Y-87635856D01*
X140105564Y-87626509D01*
X140102806Y-87616186D01*
X140100107Y-87605111D01*
X140095735Y-87586725D01*
X140090830Y-87569413D01*
X140085404Y-87553190D01*
X140082499Y-87545492D01*
X140079469Y-87538072D01*
X140076315Y-87530932D01*
X140073039Y-87524074D01*
X140069641Y-87517501D01*
X140066124Y-87511213D01*
X140062490Y-87505213D01*
X140058739Y-87499502D01*
X140054873Y-87494084D01*
X140050894Y-87488959D01*
X140046804Y-87484129D01*
X140042603Y-87479598D01*
X140038294Y-87475365D01*
X140033878Y-87471434D01*
X140029357Y-87467807D01*
X140024731Y-87464484D01*
X140020004Y-87461469D01*
X140015175Y-87458763D01*
X140010248Y-87456368D01*
X140005223Y-87454286D01*
X140000101Y-87452520D01*
X139994885Y-87451070D01*
X139989576Y-87449938D01*
X139984176Y-87449128D01*
X139978685Y-87448641D01*
X139973107Y-87448478D01*
X139967660Y-87448637D01*
X139962046Y-87449111D01*
X139956277Y-87449890D01*
X139950369Y-87450965D01*
X139938188Y-87453970D01*
X139925614Y-87458058D01*
X139912759Y-87463158D01*
X139899734Y-87469202D01*
X139886652Y-87476120D01*
X139873623Y-87483843D01*
X139860760Y-87492303D01*
X139848174Y-87501429D01*
X139835976Y-87511152D01*
X139824279Y-87521403D01*
X139813193Y-87532113D01*
X139802831Y-87543213D01*
X139793304Y-87554634D01*
X139784723Y-87566305D01*
X139774132Y-87583213D01*
X139764851Y-87601059D01*
X139756882Y-87619741D01*
X139750228Y-87639154D01*
X139744894Y-87659195D01*
X139740881Y-87679762D01*
X139738193Y-87700750D01*
X139736834Y-87722057D01*
X139736805Y-87743578D01*
X139738111Y-87765211D01*
X139740754Y-87786853D01*
X139744738Y-87808399D01*
X139750065Y-87829747D01*
X139756740Y-87850793D01*
X139764763Y-87871434D01*
X139774140Y-87891566D01*
X139783269Y-87907673D01*
X139793988Y-87923184D01*
X139806301Y-87938100D01*
X139820211Y-87952421D01*
X139835720Y-87966146D01*
X139852833Y-87979276D01*
X139871552Y-87991810D01*
X139891880Y-88003750D01*
X139913820Y-88015094D01*
X139937376Y-88025842D01*
X139962550Y-88035996D01*
X139989345Y-88045554D01*
X140017766Y-88054517D01*
X140047814Y-88062884D01*
X140079493Y-88070656D01*
X140112807Y-88077833D01*
X140131816Y-88081322D01*
X140152930Y-88084380D01*
X140200296Y-88089199D01*
X140252556Y-88092282D01*
X140307364Y-88093620D01*
X140362369Y-88093205D01*
X140415225Y-88091029D01*
X140463584Y-88087084D01*
X140485342Y-88084445D01*
X140505096Y-88081361D01*
X140540915Y-88074470D01*
X140575913Y-88067010D01*
X140610147Y-88058959D01*
X140643671Y-88050294D01*
X140676543Y-88040993D01*
X140708817Y-88031032D01*
X140740549Y-88020389D01*
X140771796Y-88009041D01*
X140802612Y-87996966D01*
X140833055Y-87984140D01*
X140863179Y-87970542D01*
X140893041Y-87956147D01*
X140922696Y-87940934D01*
X140952200Y-87924879D01*
X140981609Y-87907961D01*
X141010979Y-87890155D01*
X141042698Y-87869889D01*
X141074228Y-87848380D01*
X141105779Y-87825426D01*
X141137560Y-87800825D01*
X141169779Y-87774377D01*
X141202645Y-87745879D01*
X141236366Y-87715130D01*
X141271152Y-87681928D01*
X141344753Y-87607361D01*
X141425118Y-87520565D01*
X141513916Y-87419929D01*
X141612818Y-87303839D01*
X141695689Y-87206589D01*
X141775195Y-87115731D01*
X141850881Y-87031769D01*
X141922292Y-86955206D01*
X141988974Y-86886548D01*
X142050472Y-86826299D01*
X142079134Y-86799485D01*
X142106330Y-86774963D01*
X142132003Y-86752795D01*
X142156095Y-86733044D01*
X142183518Y-86711716D01*
X142211728Y-86690641D01*
X142270032Y-86649535D01*
X142330038Y-86610298D01*
X142390781Y-86573500D01*
X142451292Y-86539712D01*
X142481158Y-86524125D01*
X142510604Y-86509504D01*
X142539508Y-86495921D01*
X142567750Y-86483447D01*
X142595208Y-86472153D01*
X142621762Y-86462111D01*
X142675336Y-86443518D01*
X142725181Y-86427671D01*
X142773257Y-86414139D01*
X142821523Y-86402491D01*
X142871938Y-86392299D01*
X142926463Y-86383133D01*
X142987057Y-86374561D01*
X143055679Y-86366155D01*
X143069867Y-86365417D01*
X143092456Y-86364480D01*
X143120469Y-86363675D01*
X143150929Y-86363333D01*
X143209084Y-86363811D01*
X143266059Y-86366826D01*
X143321830Y-86372370D01*
X143376376Y-86380432D01*
X143429673Y-86391003D01*
X143481699Y-86404075D01*
X143532432Y-86419637D01*
X143581847Y-86437681D01*
X143629923Y-86458197D01*
X143676637Y-86481176D01*
X143721966Y-86506609D01*
X143765887Y-86534485D01*
X143808377Y-86564797D01*
X143849415Y-86597535D01*
X143888977Y-86632689D01*
X143927040Y-86670250D01*
X143997595Y-86742922D01*
X144068151Y-86670250D01*
X144088262Y-86649867D01*
X144108652Y-86630251D01*
X144129335Y-86611391D01*
X144150326Y-86593278D01*
X144171640Y-86575901D01*
X144193291Y-86559249D01*
X144215293Y-86543312D01*
X144237661Y-86528080D01*
X144260409Y-86513543D01*
X144283552Y-86499690D01*
X144307105Y-86486511D01*
X144331081Y-86473995D01*
X144355495Y-86462133D01*
X144380362Y-86450913D01*
X144405696Y-86440326D01*
X144431512Y-86430361D01*
X144497609Y-86408684D01*
X144566056Y-86391252D01*
X144636557Y-86378029D01*
X144708818Y-86368977D01*
X144782542Y-86364060D01*
X144857434Y-86363239D01*
X144933198Y-86366478D01*
D10*
G36*
X149280808Y-97282026D02*
G01*
X149484009Y-97282026D01*
X149484009Y-97485226D01*
X149636409Y-97637627D01*
X149839609Y-97637627D01*
X149839609Y-98044028D01*
X150042809Y-98044028D01*
X150042809Y-98247228D01*
X150246010Y-98247228D01*
X150398410Y-98399628D01*
X150398410Y-98602829D01*
X150601610Y-98602829D01*
X150601610Y-98856829D01*
X150398410Y-98856829D01*
X150398410Y-98653629D01*
X150246010Y-98653629D01*
X150246010Y-98450428D01*
X150042809Y-98450428D01*
X150042809Y-98298028D01*
X149839609Y-98298028D01*
X149839609Y-98094827D01*
X149636409Y-98094827D01*
X149636409Y-97891627D01*
X149484009Y-97891627D01*
X149484009Y-97536026D01*
X149280808Y-97536026D01*
X149280808Y-97332826D01*
X149077608Y-97332826D01*
X149077608Y-97078825D01*
X149280808Y-97078825D01*
X149280808Y-97282026D01*
G37*
X149280808Y-97282026D02*
X149484009Y-97282026D01*
X149484009Y-97485226D01*
X149636409Y-97637627D01*
X149839609Y-97637627D01*
X149839609Y-98044028D01*
X150042809Y-98044028D01*
X150042809Y-98247228D01*
X150246010Y-98247228D01*
X150398410Y-98399628D01*
X150398410Y-98602829D01*
X150601610Y-98602829D01*
X150601610Y-98856829D01*
X150398410Y-98856829D01*
X150398410Y-98653629D01*
X150246010Y-98653629D01*
X150246010Y-98450428D01*
X150042809Y-98450428D01*
X150042809Y-98298028D01*
X149839609Y-98298028D01*
X149839609Y-98094827D01*
X149636409Y-98094827D01*
X149636409Y-97891627D01*
X149484009Y-97891627D01*
X149484009Y-97536026D01*
X149280808Y-97536026D01*
X149280808Y-97332826D01*
X149077608Y-97332826D01*
X149077608Y-97078825D01*
X149280808Y-97078825D01*
X149280808Y-97282026D01*
G36*
X142626000Y-97129625D02*
G01*
X142422800Y-97129625D01*
X142422800Y-97332826D01*
X142219600Y-97332826D01*
X142219600Y-97536026D01*
X141864000Y-97688426D01*
X141864000Y-97485226D01*
X142016400Y-97485226D01*
X142016400Y-97282026D01*
X142219600Y-97282026D01*
X142219600Y-97078825D01*
X142422800Y-97078825D01*
X142422800Y-96875625D01*
X142626000Y-96875625D01*
X142626000Y-97129625D01*
G37*
X142626000Y-97129625D02*
X142422800Y-97129625D01*
X142422800Y-97332826D01*
X142219600Y-97332826D01*
X142219600Y-97536026D01*
X141864000Y-97688426D01*
X141864000Y-97485226D01*
X142016400Y-97485226D01*
X142016400Y-97282026D01*
X142219600Y-97282026D01*
X142219600Y-97078825D01*
X142422800Y-97078825D01*
X142422800Y-96875625D01*
X142626000Y-96875625D01*
X142626000Y-97129625D01*
G36*
X146029604Y-96520024D02*
G01*
X146029604Y-96774024D01*
X145826404Y-96774024D01*
X145826404Y-96875625D01*
X146029604Y-96875625D01*
X146029604Y-97129625D01*
X145826404Y-97129625D01*
X145826404Y-97282026D01*
X146029604Y-97282026D01*
X146029604Y-97536026D01*
X145826404Y-97536026D01*
X145826404Y-97637627D01*
X147756807Y-97637627D01*
X147756807Y-97840827D01*
X147960007Y-97840827D01*
X147960007Y-98044028D01*
X148112407Y-98044028D01*
X148112407Y-98247228D01*
X148315607Y-98247228D01*
X148315607Y-98602829D01*
X148518807Y-98602829D01*
X148518807Y-99009230D01*
X148722008Y-99009230D01*
X148722008Y-100330033D01*
X148874408Y-100330033D01*
X148874408Y-100533233D01*
X149077608Y-100533233D01*
X149077608Y-100330033D01*
X149280808Y-100330033D01*
X149280808Y-100533233D01*
X149484009Y-100533233D01*
X149484009Y-100736434D01*
X149636409Y-100888834D01*
X149839609Y-100888834D01*
X149839609Y-101092035D01*
X150042809Y-101092035D01*
X150042809Y-101346035D01*
X149839609Y-101346035D01*
X149839609Y-101498436D01*
X150042809Y-101498436D01*
X150042809Y-101701636D01*
X149839609Y-101701636D01*
X149839609Y-101854037D01*
X150042809Y-101854037D01*
X150042809Y-102108037D01*
X149839609Y-102108037D01*
X149839609Y-102260437D01*
X150042809Y-102260437D01*
X150042809Y-102463639D01*
X149839609Y-102463639D01*
X149839609Y-102616038D01*
X150042809Y-102616038D01*
X150042809Y-102870039D01*
X149839609Y-102870039D01*
X149839609Y-103073239D01*
X149636409Y-103225640D01*
X149484009Y-103225640D01*
X149484009Y-103073239D01*
X149280808Y-103073239D01*
X149280808Y-103225640D01*
X149077608Y-103225640D01*
X149077608Y-103073239D01*
X148874408Y-103225640D01*
X148722008Y-103225640D01*
X148722008Y-103073239D01*
X148518807Y-103073239D01*
X148518807Y-103225640D01*
X148315607Y-103225640D01*
X148315607Y-103022440D01*
X148518807Y-103022440D01*
X148722008Y-103022440D01*
X149636409Y-103022440D01*
X149636409Y-102870039D01*
X149484009Y-102870039D01*
X149484009Y-103022440D01*
X149280808Y-103022440D01*
X149280808Y-102870039D01*
X149077608Y-102870039D01*
X149077608Y-103022440D01*
X148874408Y-103022440D01*
X148874408Y-102870039D01*
X148722008Y-102870039D01*
X148722008Y-103022440D01*
X148518807Y-103022440D01*
X148518807Y-102870039D01*
X148315607Y-102870039D01*
X148315607Y-102819239D01*
X148518807Y-102819239D01*
X148722008Y-102819239D01*
X148874408Y-102819239D01*
X149077608Y-102819239D01*
X149280808Y-102819239D01*
X149484009Y-102819239D01*
X149636409Y-102819239D01*
X149839609Y-102819239D01*
X149839609Y-102666839D01*
X149636409Y-102666839D01*
X149636409Y-102819239D01*
X149484009Y-102819239D01*
X149484009Y-102666839D01*
X149280808Y-102666839D01*
X149280808Y-102819239D01*
X149077608Y-102819239D01*
X149077608Y-102666839D01*
X148874408Y-102666839D01*
X148874408Y-102819239D01*
X148722008Y-102819239D01*
X148722008Y-102666839D01*
X148518807Y-102666839D01*
X148518807Y-102819239D01*
X148315607Y-102819239D01*
X148315607Y-102616038D01*
X148518807Y-102616038D01*
X148722008Y-102616038D01*
X148874408Y-102616038D01*
X149077608Y-102616038D01*
X149280808Y-102616038D01*
X149484009Y-102616038D01*
X149636409Y-102616038D01*
X149636409Y-102463639D01*
X149484009Y-102463639D01*
X149484009Y-102616038D01*
X149280808Y-102616038D01*
X149280808Y-102463639D01*
X149077608Y-102463639D01*
X149077608Y-102616038D01*
X148874408Y-102616038D01*
X148874408Y-102463639D01*
X148722008Y-102463639D01*
X148722008Y-102616038D01*
X148518807Y-102616038D01*
X148518807Y-102463639D01*
X148315607Y-102463639D01*
X148315607Y-102412838D01*
X148518807Y-102412838D01*
X148722008Y-102412838D01*
X148874408Y-102412838D01*
X149839609Y-102412838D01*
X149839609Y-102311238D01*
X149636409Y-102311238D01*
X149636409Y-102412838D01*
X149484009Y-102412838D01*
X149484009Y-102311238D01*
X149280808Y-102311238D01*
X149280808Y-102412838D01*
X149077608Y-102412838D01*
X149077608Y-102311238D01*
X148874408Y-102311238D01*
X148874408Y-102412838D01*
X148722008Y-102412838D01*
X148722008Y-102311238D01*
X148518807Y-102311238D01*
X148518807Y-102412838D01*
X148315607Y-102412838D01*
X148315607Y-102311238D01*
X148112407Y-102311238D01*
X148112407Y-102260437D01*
X148315607Y-102260437D01*
X148874408Y-102260437D01*
X149077608Y-102260437D01*
X149280808Y-102260437D01*
X149484009Y-102260437D01*
X149636409Y-102260437D01*
X149636409Y-102108037D01*
X149484009Y-102108037D01*
X149484009Y-102260437D01*
X149280808Y-102260437D01*
X149280808Y-102108037D01*
X149077608Y-102108037D01*
X149077608Y-102260437D01*
X148874408Y-102260437D01*
X148874408Y-102108037D01*
X148722008Y-102108037D01*
X148722008Y-102260437D01*
X148518807Y-102260437D01*
X148518807Y-102108037D01*
X148315607Y-102108037D01*
X148315607Y-102260437D01*
X148112407Y-102260437D01*
X148112407Y-102108037D01*
X147960007Y-102108037D01*
X147960007Y-102057237D01*
X148112407Y-102057237D01*
X148315607Y-102057237D01*
X148518807Y-102057237D01*
X148722008Y-102057237D01*
X148874408Y-102057237D01*
X149077608Y-102057237D01*
X149280808Y-102057237D01*
X149484009Y-102057237D01*
X149636409Y-102057237D01*
X149839609Y-102057237D01*
X149839609Y-101904836D01*
X149636409Y-101904836D01*
X149636409Y-102057237D01*
X149484009Y-102057237D01*
X149484009Y-101904836D01*
X149280808Y-101904836D01*
X149280808Y-102057237D01*
X149077608Y-102057237D01*
X149077608Y-101904836D01*
X148874408Y-101904836D01*
X148874408Y-102057237D01*
X148722008Y-102057237D01*
X148722008Y-101904836D01*
X148518807Y-101904836D01*
X148518807Y-102057237D01*
X148315607Y-102057237D01*
X148315607Y-101904836D01*
X148112407Y-101904836D01*
X148112407Y-102057237D01*
X147960007Y-102057237D01*
X147960007Y-101904836D01*
X147756807Y-101904836D01*
X147756807Y-101854037D01*
X147960007Y-101854037D01*
X149636409Y-101854037D01*
X149636409Y-101701636D01*
X149484009Y-101701636D01*
X149484009Y-101854037D01*
X149280808Y-101854037D01*
X149280808Y-101701636D01*
X149077608Y-101701636D01*
X149077608Y-101854037D01*
X148874408Y-101854037D01*
X148874408Y-101701636D01*
X148722008Y-101701636D01*
X148722008Y-101854037D01*
X148518807Y-101854037D01*
X148518807Y-101701636D01*
X148315607Y-101701636D01*
X148315607Y-101854037D01*
X148112407Y-101854037D01*
X148112407Y-101701636D01*
X147960007Y-101701636D01*
X147960007Y-101854037D01*
X147756807Y-101854037D01*
X147756807Y-101701636D01*
X147553606Y-101701636D01*
X147553606Y-101650836D01*
X148112407Y-101650836D01*
X149839609Y-101650836D01*
X149839609Y-101549236D01*
X149636409Y-101549236D01*
X149636409Y-101650836D01*
X149484009Y-101650836D01*
X149484009Y-101549236D01*
X149280808Y-101549236D01*
X149280808Y-101650836D01*
X149077608Y-101650836D01*
X149077608Y-101549236D01*
X148874408Y-101549236D01*
X148874408Y-101650836D01*
X148722008Y-101650836D01*
X148722008Y-101549236D01*
X148518807Y-101549236D01*
X148518807Y-101650836D01*
X148315607Y-101650836D01*
X148315607Y-101549236D01*
X148112407Y-101549236D01*
X148112407Y-101650836D01*
X147553606Y-101650836D01*
X147553606Y-101549236D01*
X147350406Y-101549236D01*
X147350406Y-101346035D01*
X147198006Y-101346035D01*
X147198006Y-101142835D01*
X146588405Y-101142835D01*
X146588405Y-100939635D01*
X146232805Y-100939635D01*
X146232805Y-100787234D01*
X145826404Y-100787234D01*
X145826404Y-100584033D01*
X144912003Y-100584033D01*
X144912003Y-100787234D01*
X144708803Y-100787234D01*
X144708803Y-100330033D01*
X144912003Y-100330033D01*
X145267604Y-100330033D01*
X145267604Y-99771232D01*
X146588405Y-99771232D01*
X146994806Y-99771232D01*
X146994806Y-99415631D01*
X146588405Y-99415631D01*
X146588405Y-99771232D01*
X145267604Y-99771232D01*
X145267604Y-99364831D01*
X145470804Y-99364831D01*
X145470804Y-99009230D01*
X145674004Y-99009230D01*
X145674004Y-98806029D01*
X145826404Y-98806029D01*
X145826404Y-98602829D01*
X147198006Y-98602829D01*
X147198006Y-98806029D01*
X147350406Y-98806029D01*
X147350406Y-99009230D01*
X147553606Y-99009230D01*
X147553606Y-99364831D01*
X147756807Y-99364831D01*
X147756807Y-100584033D01*
X147553606Y-100584033D01*
X147553606Y-100787234D01*
X147350406Y-100787234D01*
X147350406Y-101295236D01*
X147553606Y-101295236D01*
X147553606Y-101092035D01*
X147756807Y-101092035D01*
X147756807Y-100888834D01*
X147960007Y-100888834D01*
X147960007Y-100533233D01*
X148112407Y-100533233D01*
X148112407Y-99212430D01*
X147960007Y-99212430D01*
X147960007Y-98856829D01*
X147756807Y-98856829D01*
X147756807Y-98653629D01*
X147553606Y-98653629D01*
X147553606Y-98450428D01*
X147350406Y-98450428D01*
X147350406Y-98298028D01*
X145674004Y-98298028D01*
X145674004Y-98450428D01*
X145470804Y-98450428D01*
X145470804Y-98653629D01*
X145267604Y-98653629D01*
X145267604Y-98856829D01*
X145064403Y-98856829D01*
X145064403Y-99212430D01*
X144912003Y-99212430D01*
X144912003Y-100330033D01*
X144708803Y-100330033D01*
X144708803Y-99161630D01*
X144912003Y-99161630D01*
X144912003Y-98806029D01*
X145064403Y-98806029D01*
X145064403Y-98602829D01*
X145267604Y-98602829D01*
X145267604Y-98399628D01*
X145470804Y-98399628D01*
X145470804Y-98247228D01*
X145674004Y-98247228D01*
X145674004Y-98044028D01*
X147350406Y-98044028D01*
X147350406Y-98247228D01*
X147553606Y-98247228D01*
X147553606Y-98399628D01*
X147756807Y-98399628D01*
X147756807Y-98602829D01*
X147960007Y-98602829D01*
X147960007Y-98806029D01*
X148112407Y-98806029D01*
X148112407Y-99161630D01*
X148315607Y-99161630D01*
X148315607Y-100584033D01*
X148112407Y-100584033D01*
X148112407Y-100939635D01*
X147960007Y-100939635D01*
X147960007Y-101142835D01*
X147756807Y-101142835D01*
X147756807Y-101498436D01*
X148112407Y-101498436D01*
X148315607Y-101498436D01*
X149636409Y-101498436D01*
X149636409Y-101346035D01*
X149484009Y-101346035D01*
X149484009Y-101498436D01*
X149280808Y-101498436D01*
X149280808Y-101346035D01*
X149077608Y-101346035D01*
X149077608Y-101498436D01*
X148874408Y-101498436D01*
X148874408Y-101346035D01*
X148722008Y-101346035D01*
X148722008Y-101498436D01*
X148518807Y-101498436D01*
X148518807Y-101346035D01*
X148315607Y-101346035D01*
X148315607Y-101498436D01*
X148112407Y-101498436D01*
X148112407Y-101295236D01*
X148518807Y-101295236D01*
X149484009Y-101295236D01*
X149636409Y-101295236D01*
X149839609Y-101295236D01*
X149839609Y-101142835D01*
X149636409Y-101142835D01*
X149636409Y-101295236D01*
X149484009Y-101295236D01*
X149484009Y-101142835D01*
X149280808Y-101142835D01*
X149280808Y-101295236D01*
X149077608Y-101295236D01*
X149077608Y-101142835D01*
X148874408Y-101142835D01*
X148874408Y-101295236D01*
X148722008Y-101295236D01*
X148722008Y-101142835D01*
X148518807Y-101142835D01*
X148518807Y-101295236D01*
X148112407Y-101295236D01*
X148112407Y-101092035D01*
X148315607Y-101092035D01*
X148722008Y-101092035D01*
X148874408Y-101092035D01*
X149077608Y-101092035D01*
X149636409Y-101092035D01*
X149636409Y-100939635D01*
X149484009Y-100939635D01*
X149484009Y-101092035D01*
X149280808Y-101092035D01*
X149280808Y-100939635D01*
X149077608Y-100939635D01*
X149077608Y-101092035D01*
X148874408Y-101092035D01*
X148874408Y-100939635D01*
X148722008Y-100939635D01*
X148722008Y-101092035D01*
X148315607Y-101092035D01*
X148315607Y-100888834D01*
X148518807Y-100888834D01*
X148722008Y-100888834D01*
X148874408Y-100888834D01*
X149484009Y-100888834D01*
X149484009Y-100787234D01*
X149280808Y-100787234D01*
X149280808Y-100888834D01*
X149077608Y-100888834D01*
X149077608Y-100787234D01*
X148874408Y-100787234D01*
X148874408Y-100888834D01*
X148722008Y-100888834D01*
X148722008Y-100787234D01*
X148518807Y-100787234D01*
X148518807Y-100888834D01*
X148315607Y-100888834D01*
X148315607Y-100736434D01*
X148518807Y-100736434D01*
X148722008Y-100736434D01*
X148874408Y-100736434D01*
X149077608Y-100736434D01*
X149280808Y-100736434D01*
X149280808Y-100584033D01*
X149077608Y-100584033D01*
X149077608Y-100736434D01*
X148874408Y-100736434D01*
X148874408Y-100584033D01*
X148722008Y-100584033D01*
X148722008Y-100736434D01*
X148518807Y-100736434D01*
X148518807Y-99060030D01*
X148315607Y-99060030D01*
X148315607Y-98653629D01*
X148112407Y-98653629D01*
X148112407Y-98450428D01*
X147960007Y-98298028D01*
X147756807Y-98298028D01*
X147756807Y-98094827D01*
X147553606Y-98094827D01*
X147553606Y-97891627D01*
X145470804Y-97891627D01*
X145470804Y-98094827D01*
X145267604Y-98094827D01*
X145267604Y-98298028D01*
X145064403Y-98298028D01*
X144912003Y-98450428D01*
X144912003Y-98653629D01*
X144708803Y-98653629D01*
X144708803Y-99060030D01*
X144505603Y-99060030D01*
X144505603Y-100380833D01*
X143946802Y-100380833D01*
X143946802Y-100177633D01*
X143540402Y-100177633D01*
X143540402Y-99974432D01*
X143184801Y-99974432D01*
X143184801Y-99822031D01*
X142778401Y-99822031D01*
X142778401Y-99618831D01*
X142422800Y-99618831D01*
X142422800Y-99415631D01*
X142219600Y-99415631D01*
X142219600Y-99212430D01*
X141864000Y-99212430D01*
X141864000Y-99060030D01*
X141457599Y-99060030D01*
X141457599Y-98856829D01*
X141254399Y-98856829D01*
X141254399Y-98653629D01*
X141101999Y-98653629D01*
X141101999Y-98450428D01*
X140695599Y-98450428D01*
X140695599Y-98298028D01*
X140492398Y-98298028D01*
X140492398Y-98094827D01*
X140339997Y-98094827D01*
X140339997Y-98044028D01*
X140492398Y-98044028D01*
X140695599Y-98044028D01*
X140695599Y-98247228D01*
X141101999Y-98247228D01*
X141254399Y-98399628D01*
X141254399Y-98602829D01*
X141457599Y-98602829D01*
X141457599Y-98806029D01*
X141864000Y-98806029D01*
X141864000Y-99009230D01*
X142219600Y-99009230D01*
X142219600Y-99161630D01*
X142422800Y-99161630D01*
X142422800Y-99364831D01*
X142778401Y-99364831D01*
X142778401Y-99568031D01*
X143184801Y-99568031D01*
X143184801Y-99771232D01*
X143743602Y-99771232D01*
X143743602Y-99923632D01*
X144150002Y-99923632D01*
X144150002Y-100126832D01*
X144302403Y-100126832D01*
X144302403Y-98806029D01*
X144505603Y-98806029D01*
X144505603Y-98399628D01*
X144708803Y-98399628D01*
X144708803Y-98247228D01*
X144912003Y-98247228D01*
X145064403Y-98044028D01*
X145064403Y-97891627D01*
X144912003Y-97891627D01*
X144912003Y-97688426D01*
X144708803Y-97688426D01*
X144708803Y-97637627D01*
X145064403Y-97637627D01*
X145674004Y-97637627D01*
X145674004Y-97536026D01*
X145470804Y-97536026D01*
X145470804Y-97637627D01*
X145267604Y-97637627D01*
X145267604Y-97536026D01*
X145064403Y-97536026D01*
X145064403Y-97637627D01*
X144708803Y-97637627D01*
X144708803Y-97485226D01*
X144912003Y-97485226D01*
X145064403Y-97485226D01*
X145267604Y-97485226D01*
X145470804Y-97485226D01*
X145674004Y-97485226D01*
X145826404Y-97485226D01*
X145826404Y-97332826D01*
X145674004Y-97332826D01*
X145674004Y-97485226D01*
X145470804Y-97485226D01*
X145470804Y-97332826D01*
X145267604Y-97332826D01*
X145267604Y-97485226D01*
X145064403Y-97485226D01*
X145064403Y-97332826D01*
X144912003Y-97332826D01*
X144912003Y-97485226D01*
X144708803Y-97485226D01*
X144708803Y-97332826D01*
X144505603Y-97332826D01*
X144505603Y-97282026D01*
X145064403Y-97282026D01*
X145267604Y-97282026D01*
X145470804Y-97282026D01*
X145674004Y-97282026D01*
X145674004Y-97129625D01*
X145470804Y-97129625D01*
X145470804Y-97282026D01*
X145267604Y-97282026D01*
X145267604Y-97129625D01*
X145064403Y-97129625D01*
X145064403Y-97282026D01*
X144505603Y-97282026D01*
X144505603Y-97078825D01*
X144912003Y-97078825D01*
X145064403Y-97078825D01*
X145267604Y-97078825D01*
X145470804Y-97078825D01*
X145674004Y-97078825D01*
X145826404Y-97078825D01*
X145826404Y-96926424D01*
X145674004Y-96926424D01*
X145674004Y-97078825D01*
X145470804Y-97078825D01*
X145470804Y-96926424D01*
X145267604Y-96926424D01*
X145267604Y-97078825D01*
X145064403Y-97078825D01*
X145064403Y-96926424D01*
X144912003Y-96926424D01*
X144912003Y-97078825D01*
X144505603Y-97078825D01*
X144505603Y-96926424D01*
X144302403Y-96926424D01*
X144251604Y-96875625D01*
X144708803Y-96875625D01*
X144912003Y-96875625D01*
X145064403Y-96875625D01*
X145267604Y-96875625D01*
X145470804Y-96875625D01*
X145674004Y-96875625D01*
X145674004Y-96774024D01*
X145470804Y-96774024D01*
X145470804Y-96875625D01*
X145267604Y-96875625D01*
X145267604Y-96774024D01*
X145064403Y-96774024D01*
X145064403Y-96875625D01*
X144912003Y-96875625D01*
X144912003Y-96774024D01*
X144708803Y-96774024D01*
X144708803Y-96875625D01*
X144251604Y-96875625D01*
X144150002Y-96774024D01*
X144150002Y-96723224D01*
X144505603Y-96723224D01*
X145826404Y-96723224D01*
X145826404Y-96570824D01*
X145674004Y-96570824D01*
X145674004Y-96723224D01*
X145470804Y-96723224D01*
X145470804Y-96570824D01*
X145267604Y-96570824D01*
X145267604Y-96723224D01*
X145064403Y-96723224D01*
X145064403Y-96570824D01*
X144912003Y-96570824D01*
X144912003Y-96723224D01*
X144708803Y-96723224D01*
X144708803Y-96570824D01*
X144505603Y-96570824D01*
X144505603Y-96723224D01*
X144150002Y-96723224D01*
X144150002Y-96520024D01*
X144708803Y-96520024D01*
X144912003Y-96520024D01*
X145064403Y-96520024D01*
X145267604Y-96520024D01*
X145470804Y-96520024D01*
X145674004Y-96520024D01*
X145674004Y-96367623D01*
X145470804Y-96367623D01*
X145470804Y-96520024D01*
X145267604Y-96520024D01*
X145267604Y-96367623D01*
X145064403Y-96367623D01*
X145064403Y-96520024D01*
X144912003Y-96520024D01*
X144912003Y-96367623D01*
X144708803Y-96367623D01*
X144708803Y-96520024D01*
X144150002Y-96520024D01*
X144150002Y-96367623D01*
X143946802Y-96367623D01*
X143946802Y-96316823D01*
X144505603Y-96316823D01*
X144708803Y-96316823D01*
X144912003Y-96316823D01*
X145064403Y-96316823D01*
X145267604Y-96316823D01*
X145470804Y-96316823D01*
X145470804Y-96164423D01*
X145267604Y-96164423D01*
X145267604Y-96316823D01*
X145064403Y-96316823D01*
X145064403Y-96164423D01*
X144912003Y-96164423D01*
X144912003Y-96316823D01*
X144708803Y-96316823D01*
X144708803Y-96164423D01*
X144505603Y-96164423D01*
X144505603Y-96316823D01*
X143946802Y-96316823D01*
X143946802Y-96164423D01*
X143540402Y-96164423D01*
X143540402Y-96012023D01*
X142981601Y-96012023D01*
X142981601Y-95808822D01*
X142778401Y-95808822D01*
X142778401Y-96012023D01*
X142219600Y-96012023D01*
X142219600Y-96113623D01*
X142422800Y-96113623D01*
X142422800Y-96316823D01*
X142778401Y-96316823D01*
X142778401Y-96520024D01*
X142981601Y-96520024D01*
X142981601Y-96723224D01*
X143388001Y-96723224D01*
X143388001Y-96875625D01*
X143743602Y-96875625D01*
X143743602Y-97078825D01*
X143946802Y-97078825D01*
X143946802Y-97282026D01*
X144150002Y-97282026D01*
X144150002Y-97891627D01*
X143946802Y-97891627D01*
X143946802Y-98094827D01*
X143743602Y-98094827D01*
X143743602Y-98298028D01*
X143540402Y-98298028D01*
X143540402Y-98653629D01*
X142219600Y-98653629D01*
X142219600Y-98450428D01*
X141864000Y-98450428D01*
X141864000Y-98298028D01*
X141457599Y-98298028D01*
X141457599Y-98094827D01*
X141101999Y-98094827D01*
X141101999Y-97891627D01*
X140898799Y-97891627D01*
X140898799Y-97688426D01*
X140695599Y-97688426D01*
X140695599Y-97536026D01*
X140492398Y-97536026D01*
X140492398Y-98044028D01*
X140339997Y-98044028D01*
X140339997Y-97891627D01*
X139730397Y-97891627D01*
X139730397Y-97688426D01*
X139374797Y-97688426D01*
X139374797Y-97536026D01*
X138968397Y-97536026D01*
X138968397Y-97332826D01*
X137850795Y-97332826D01*
X137850795Y-97536026D01*
X137291994Y-97536026D01*
X137291994Y-97688426D01*
X137088794Y-97688426D01*
X137088794Y-97840827D01*
X137647595Y-97840827D01*
X137647595Y-98044028D01*
X137850795Y-98044028D01*
X137850795Y-98247228D01*
X138206395Y-98247228D01*
X138206395Y-98399628D01*
X138612796Y-98399628D01*
X138612796Y-98602829D01*
X138968397Y-98602829D01*
X138968397Y-98806029D01*
X139171597Y-98806029D01*
X139171597Y-99009230D01*
X139577997Y-99009230D01*
X139730397Y-99161630D01*
X139730397Y-99364831D01*
X140136797Y-99364831D01*
X140136797Y-99568031D01*
X140339997Y-99568031D01*
X140339997Y-99771232D01*
X140492398Y-99923632D01*
X140695599Y-99923632D01*
X140695599Y-100126832D01*
X140898799Y-100126832D01*
X140898799Y-100330033D01*
X141101999Y-100330033D01*
X141101999Y-100533233D01*
X141254399Y-100533233D01*
X141254399Y-100736434D01*
X141457599Y-100736434D01*
X141457599Y-100888834D01*
X141660799Y-100888834D01*
X141660799Y-101092035D01*
X141864000Y-101092035D01*
X141864000Y-101295236D01*
X142219600Y-101295236D01*
X142219600Y-101498436D01*
X142422800Y-101498436D01*
X142422800Y-101650836D01*
X142626000Y-101650836D01*
X142626000Y-101854037D01*
X142778401Y-101854037D01*
X142778401Y-102057237D01*
X143184801Y-102057237D01*
X143184801Y-102260437D01*
X143743602Y-102260437D01*
X143743602Y-102412838D01*
X144505603Y-102412838D01*
X144505603Y-102260437D01*
X144708803Y-102260437D01*
X144708803Y-102057237D01*
X145064403Y-102057237D01*
X145064403Y-102311238D01*
X144912003Y-102463639D01*
X144505603Y-102463639D01*
X144505603Y-102666839D01*
X138968397Y-102666839D01*
X138968397Y-102463639D01*
X138409595Y-102463639D01*
X138409595Y-102311238D01*
X137647595Y-102311238D01*
X137647595Y-102260437D01*
X138612796Y-102260437D01*
X139171597Y-102260437D01*
X139171597Y-102412838D01*
X141864000Y-102412838D01*
X142016400Y-102260437D01*
X142016400Y-102108037D01*
X141864000Y-102108037D01*
X141864000Y-101904836D01*
X141457599Y-101904836D01*
X141457599Y-101701636D01*
X141254399Y-101701636D01*
X141254399Y-101549236D01*
X139933597Y-101549236D01*
X139933597Y-101701636D01*
X139171597Y-101701636D01*
X139171597Y-101904836D01*
X138968397Y-101904836D01*
X138968397Y-102108037D01*
X138612796Y-102108037D01*
X138612796Y-102260437D01*
X137647595Y-102260437D01*
X137647595Y-102108037D01*
X137291994Y-102108037D01*
X137291994Y-101904836D01*
X136885594Y-101904836D01*
X136885594Y-101701636D01*
X136682394Y-101701636D01*
X136682394Y-101549236D01*
X136326794Y-101549236D01*
X136326794Y-102057237D01*
X136529994Y-102057237D01*
X136529994Y-102412838D01*
X136682394Y-102412838D01*
X136682394Y-102616038D01*
X136885594Y-102616038D01*
X136885594Y-102819239D01*
X137088794Y-102819239D01*
X137088794Y-103022440D01*
X137291994Y-103022440D01*
X137291994Y-103174840D01*
X138053995Y-103174840D01*
X138053995Y-103378040D01*
X138815996Y-103378040D01*
X138815996Y-103581241D01*
X139171597Y-103581241D01*
X139171597Y-103784441D01*
X140136797Y-103784441D01*
X140136797Y-103936841D01*
X140695599Y-103936841D01*
X140695599Y-104140042D01*
X141254399Y-104140042D01*
X141254399Y-104546443D01*
X141660799Y-104546443D01*
X141660799Y-104698844D01*
X142219600Y-104698844D01*
X142219600Y-104902044D01*
X142626000Y-104902044D01*
X142626000Y-105105244D01*
X142778401Y-105105244D01*
X142778401Y-105359246D01*
X141101999Y-105359246D01*
X141101999Y-104952844D01*
X140898799Y-104952844D01*
X140898799Y-104749644D01*
X140695599Y-104749644D01*
X140695599Y-104190843D01*
X140136797Y-104190843D01*
X140136797Y-103987641D01*
X139171597Y-103987641D01*
X139171597Y-103835242D01*
X138815996Y-103835242D01*
X138815996Y-103632041D01*
X138053995Y-103632041D01*
X138053995Y-103428840D01*
X137291994Y-103428840D01*
X137291994Y-103225640D01*
X137088794Y-103225640D01*
X137088794Y-103073239D01*
X136885594Y-103073239D01*
X136885594Y-102870039D01*
X136682394Y-102870039D01*
X136682394Y-102666839D01*
X136529994Y-102666839D01*
X136529994Y-102463639D01*
X136326794Y-102463639D01*
X136326794Y-102108037D01*
X136123593Y-102108037D01*
X136123593Y-101498436D01*
X136682394Y-101498436D01*
X136885594Y-101498436D01*
X136885594Y-101650836D01*
X137291994Y-101650836D01*
X137291994Y-101854037D01*
X137850795Y-101854037D01*
X137850795Y-102057237D01*
X138206395Y-102057237D01*
X138206395Y-101854037D01*
X138612796Y-101854037D01*
X138612796Y-101650836D01*
X138968397Y-101650836D01*
X138968397Y-101549236D01*
X137088794Y-101549236D01*
X137088794Y-101346035D01*
X136682394Y-101346035D01*
X136682394Y-101498436D01*
X136123593Y-101498436D01*
X136123593Y-101295236D01*
X136326794Y-101295236D01*
X136326794Y-101092035D01*
X137088794Y-101092035D01*
X137088794Y-101295236D01*
X139730397Y-101295236D01*
X139577997Y-101142835D01*
X139577997Y-100939635D01*
X139374797Y-100939635D01*
X139374797Y-100787234D01*
X139171597Y-100787234D01*
X139171597Y-100584033D01*
X138968397Y-100584033D01*
X138968397Y-100380833D01*
X138815996Y-100380833D01*
X138815996Y-100177633D01*
X138612796Y-100177633D01*
X138612796Y-99974432D01*
X138409595Y-99974432D01*
X138409595Y-99822031D01*
X138206395Y-99822031D01*
X138206395Y-99618831D01*
X138053995Y-99618831D01*
X138053995Y-99415631D01*
X137850795Y-99415631D01*
X137850795Y-99212430D01*
X137647595Y-99212430D01*
X137647595Y-99060030D01*
X137444395Y-99060030D01*
X137444395Y-98856829D01*
X137291994Y-98856829D01*
X137291994Y-98653629D01*
X137088794Y-98653629D01*
X137088794Y-98450428D01*
X136885594Y-98450428D01*
X136885594Y-98298028D01*
X136682394Y-98298028D01*
X136682394Y-97637627D01*
X136885594Y-97637627D01*
X136885594Y-97485226D01*
X137088794Y-97485226D01*
X137088794Y-97282026D01*
X137647595Y-97282026D01*
X137647595Y-97078825D01*
X138968397Y-97078825D01*
X138968397Y-97282026D01*
X139577997Y-97282026D01*
X139577997Y-97485226D01*
X139933597Y-97485226D01*
X139933597Y-97637627D01*
X140339997Y-97637627D01*
X140339997Y-97282026D01*
X140492398Y-97282026D01*
X140695599Y-97282026D01*
X140898799Y-97282026D01*
X140898799Y-97485226D01*
X141101999Y-97485226D01*
X141254399Y-97637627D01*
X141254399Y-97840827D01*
X141660799Y-97840827D01*
X141660799Y-98044028D01*
X142016400Y-98044028D01*
X142016400Y-98247228D01*
X142422800Y-98247228D01*
X142422800Y-98399628D01*
X143388001Y-98399628D01*
X143388001Y-98044028D01*
X143540402Y-98044028D01*
X143540402Y-97840827D01*
X143743602Y-97840827D01*
X143743602Y-97637627D01*
X143946802Y-97637627D01*
X143946802Y-97536026D01*
X143743602Y-97536026D01*
X143743602Y-97332826D01*
X143540402Y-97332826D01*
X143540402Y-97129625D01*
X143184801Y-97129625D01*
X143184801Y-96926424D01*
X142778401Y-96926424D01*
X142626000Y-96774024D01*
X142626000Y-96570824D01*
X142219600Y-96570824D01*
X142219600Y-96774024D01*
X142016400Y-96774024D01*
X142016400Y-96926424D01*
X141660799Y-96926424D01*
X141660799Y-97129625D01*
X141457599Y-97129625D01*
X141457599Y-97332826D01*
X141254399Y-97332826D01*
X141254399Y-97078825D01*
X141457599Y-97078825D01*
X141457599Y-96875625D01*
X141660799Y-96875625D01*
X141660799Y-96723224D01*
X142016400Y-96723224D01*
X142016400Y-96520024D01*
X142219600Y-96520024D01*
X142219600Y-96367623D01*
X142016400Y-96367623D01*
X142016400Y-96164423D01*
X141864000Y-96164423D01*
X141864000Y-96367623D01*
X141660799Y-96367623D01*
X141660799Y-96570824D01*
X141254399Y-96570824D01*
X141254399Y-96774024D01*
X140898799Y-96774024D01*
X140898799Y-97129625D01*
X140695599Y-97129625D01*
X140695599Y-97282026D01*
X140492398Y-97282026D01*
X140492398Y-96875625D01*
X140695599Y-96875625D01*
X140695599Y-96520024D01*
X141101999Y-96520024D01*
X141101999Y-96316823D01*
X141254399Y-96316823D01*
X141254399Y-96113623D01*
X141660799Y-96113623D01*
X141660799Y-95961222D01*
X142219600Y-95961222D01*
X142219600Y-95758022D01*
X142778401Y-95758022D01*
X143540402Y-95758022D01*
X143743602Y-95758022D01*
X143743602Y-95961222D01*
X144302403Y-95961222D01*
X144302403Y-96113623D01*
X144505603Y-96113623D01*
X144505603Y-95961222D01*
X144708803Y-95961222D01*
X144708803Y-96113623D01*
X144912003Y-96113623D01*
X144912003Y-95961222D01*
X146994806Y-95961222D01*
X146994806Y-95808822D01*
X146436005Y-95808822D01*
X146436005Y-95605621D01*
X143540402Y-95605621D01*
X143540402Y-95758022D01*
X142778401Y-95758022D01*
X142778401Y-95554821D01*
X143540402Y-95554821D01*
X143540402Y-95351621D01*
X146588405Y-95351621D01*
X146588405Y-95554821D01*
X146994806Y-95554821D01*
X146994806Y-95758022D01*
X147553606Y-95758022D01*
X147553606Y-95961222D01*
X147960007Y-95961222D01*
X147960007Y-96113623D01*
X148315607Y-96113623D01*
X148315607Y-96316823D01*
X148518807Y-96316823D01*
X148518807Y-96520024D01*
X148722008Y-96520024D01*
X148722008Y-96774024D01*
X148518807Y-96774024D01*
X148518807Y-96570824D01*
X148112407Y-96570824D01*
X148112407Y-96367623D01*
X147960007Y-96367623D01*
X147960007Y-96164423D01*
X145674004Y-96164423D01*
X145826404Y-96316823D01*
X145826404Y-96520024D01*
X146029604Y-96520024D01*
G37*
X146029604Y-96520024D02*
X146029604Y-96774024D01*
X145826404Y-96774024D01*
X145826404Y-96875625D01*
X146029604Y-96875625D01*
X146029604Y-97129625D01*
X145826404Y-97129625D01*
X145826404Y-97282026D01*
X146029604Y-97282026D01*
X146029604Y-97536026D01*
X145826404Y-97536026D01*
X145826404Y-97637627D01*
X147756807Y-97637627D01*
X147756807Y-97840827D01*
X147960007Y-97840827D01*
X147960007Y-98044028D01*
X148112407Y-98044028D01*
X148112407Y-98247228D01*
X148315607Y-98247228D01*
X148315607Y-98602829D01*
X148518807Y-98602829D01*
X148518807Y-99009230D01*
X148722008Y-99009230D01*
X148722008Y-100330033D01*
X148874408Y-100330033D01*
X148874408Y-100533233D01*
X149077608Y-100533233D01*
X149077608Y-100330033D01*
X149280808Y-100330033D01*
X149280808Y-100533233D01*
X149484009Y-100533233D01*
X149484009Y-100736434D01*
X149636409Y-100888834D01*
X149839609Y-100888834D01*
X149839609Y-101092035D01*
X150042809Y-101092035D01*
X150042809Y-101346035D01*
X149839609Y-101346035D01*
X149839609Y-101498436D01*
X150042809Y-101498436D01*
X150042809Y-101701636D01*
X149839609Y-101701636D01*
X149839609Y-101854037D01*
X150042809Y-101854037D01*
X150042809Y-102108037D01*
X149839609Y-102108037D01*
X149839609Y-102260437D01*
X150042809Y-102260437D01*
X150042809Y-102463639D01*
X149839609Y-102463639D01*
X149839609Y-102616038D01*
X150042809Y-102616038D01*
X150042809Y-102870039D01*
X149839609Y-102870039D01*
X149839609Y-103073239D01*
X149636409Y-103225640D01*
X149484009Y-103225640D01*
X149484009Y-103073239D01*
X149280808Y-103073239D01*
X149280808Y-103225640D01*
X149077608Y-103225640D01*
X149077608Y-103073239D01*
X148874408Y-103225640D01*
X148722008Y-103225640D01*
X148722008Y-103073239D01*
X148518807Y-103073239D01*
X148518807Y-103225640D01*
X148315607Y-103225640D01*
X148315607Y-103022440D01*
X148518807Y-103022440D01*
X148722008Y-103022440D01*
X149636409Y-103022440D01*
X149636409Y-102870039D01*
X149484009Y-102870039D01*
X149484009Y-103022440D01*
X149280808Y-103022440D01*
X149280808Y-102870039D01*
X149077608Y-102870039D01*
X149077608Y-103022440D01*
X148874408Y-103022440D01*
X148874408Y-102870039D01*
X148722008Y-102870039D01*
X148722008Y-103022440D01*
X148518807Y-103022440D01*
X148518807Y-102870039D01*
X148315607Y-102870039D01*
X148315607Y-102819239D01*
X148518807Y-102819239D01*
X148722008Y-102819239D01*
X148874408Y-102819239D01*
X149077608Y-102819239D01*
X149280808Y-102819239D01*
X149484009Y-102819239D01*
X149636409Y-102819239D01*
X149839609Y-102819239D01*
X149839609Y-102666839D01*
X149636409Y-102666839D01*
X149636409Y-102819239D01*
X149484009Y-102819239D01*
X149484009Y-102666839D01*
X149280808Y-102666839D01*
X149280808Y-102819239D01*
X149077608Y-102819239D01*
X149077608Y-102666839D01*
X148874408Y-102666839D01*
X148874408Y-102819239D01*
X148722008Y-102819239D01*
X148722008Y-102666839D01*
X148518807Y-102666839D01*
X148518807Y-102819239D01*
X148315607Y-102819239D01*
X148315607Y-102616038D01*
X148518807Y-102616038D01*
X148722008Y-102616038D01*
X148874408Y-102616038D01*
X149077608Y-102616038D01*
X149280808Y-102616038D01*
X149484009Y-102616038D01*
X149636409Y-102616038D01*
X149636409Y-102463639D01*
X149484009Y-102463639D01*
X149484009Y-102616038D01*
X149280808Y-102616038D01*
X149280808Y-102463639D01*
X149077608Y-102463639D01*
X149077608Y-102616038D01*
X148874408Y-102616038D01*
X148874408Y-102463639D01*
X148722008Y-102463639D01*
X148722008Y-102616038D01*
X148518807Y-102616038D01*
X148518807Y-102463639D01*
X148315607Y-102463639D01*
X148315607Y-102412838D01*
X148518807Y-102412838D01*
X148722008Y-102412838D01*
X148874408Y-102412838D01*
X149839609Y-102412838D01*
X149839609Y-102311238D01*
X149636409Y-102311238D01*
X149636409Y-102412838D01*
X149484009Y-102412838D01*
X149484009Y-102311238D01*
X149280808Y-102311238D01*
X149280808Y-102412838D01*
X149077608Y-102412838D01*
X149077608Y-102311238D01*
X148874408Y-102311238D01*
X148874408Y-102412838D01*
X148722008Y-102412838D01*
X148722008Y-102311238D01*
X148518807Y-102311238D01*
X148518807Y-102412838D01*
X148315607Y-102412838D01*
X148315607Y-102311238D01*
X148112407Y-102311238D01*
X148112407Y-102260437D01*
X148315607Y-102260437D01*
X148874408Y-102260437D01*
X149077608Y-102260437D01*
X149280808Y-102260437D01*
X149484009Y-102260437D01*
X149636409Y-102260437D01*
X149636409Y-102108037D01*
X149484009Y-102108037D01*
X149484009Y-102260437D01*
X149280808Y-102260437D01*
X149280808Y-102108037D01*
X149077608Y-102108037D01*
X149077608Y-102260437D01*
X148874408Y-102260437D01*
X148874408Y-102108037D01*
X148722008Y-102108037D01*
X148722008Y-102260437D01*
X148518807Y-102260437D01*
X148518807Y-102108037D01*
X148315607Y-102108037D01*
X148315607Y-102260437D01*
X148112407Y-102260437D01*
X148112407Y-102108037D01*
X147960007Y-102108037D01*
X147960007Y-102057237D01*
X148112407Y-102057237D01*
X148315607Y-102057237D01*
X148518807Y-102057237D01*
X148722008Y-102057237D01*
X148874408Y-102057237D01*
X149077608Y-102057237D01*
X149280808Y-102057237D01*
X149484009Y-102057237D01*
X149636409Y-102057237D01*
X149839609Y-102057237D01*
X149839609Y-101904836D01*
X149636409Y-101904836D01*
X149636409Y-102057237D01*
X149484009Y-102057237D01*
X149484009Y-101904836D01*
X149280808Y-101904836D01*
X149280808Y-102057237D01*
X149077608Y-102057237D01*
X149077608Y-101904836D01*
X148874408Y-101904836D01*
X148874408Y-102057237D01*
X148722008Y-102057237D01*
X148722008Y-101904836D01*
X148518807Y-101904836D01*
X148518807Y-102057237D01*
X148315607Y-102057237D01*
X148315607Y-101904836D01*
X148112407Y-101904836D01*
X148112407Y-102057237D01*
X147960007Y-102057237D01*
X147960007Y-101904836D01*
X147756807Y-101904836D01*
X147756807Y-101854037D01*
X147960007Y-101854037D01*
X149636409Y-101854037D01*
X149636409Y-101701636D01*
X149484009Y-101701636D01*
X149484009Y-101854037D01*
X149280808Y-101854037D01*
X149280808Y-101701636D01*
X149077608Y-101701636D01*
X149077608Y-101854037D01*
X148874408Y-101854037D01*
X148874408Y-101701636D01*
X148722008Y-101701636D01*
X148722008Y-101854037D01*
X148518807Y-101854037D01*
X148518807Y-101701636D01*
X148315607Y-101701636D01*
X148315607Y-101854037D01*
X148112407Y-101854037D01*
X148112407Y-101701636D01*
X147960007Y-101701636D01*
X147960007Y-101854037D01*
X147756807Y-101854037D01*
X147756807Y-101701636D01*
X147553606Y-101701636D01*
X147553606Y-101650836D01*
X148112407Y-101650836D01*
X149839609Y-101650836D01*
X149839609Y-101549236D01*
X149636409Y-101549236D01*
X149636409Y-101650836D01*
X149484009Y-101650836D01*
X149484009Y-101549236D01*
X149280808Y-101549236D01*
X149280808Y-101650836D01*
X149077608Y-101650836D01*
X149077608Y-101549236D01*
X148874408Y-101549236D01*
X148874408Y-101650836D01*
X148722008Y-101650836D01*
X148722008Y-101549236D01*
X148518807Y-101549236D01*
X148518807Y-101650836D01*
X148315607Y-101650836D01*
X148315607Y-101549236D01*
X148112407Y-101549236D01*
X148112407Y-101650836D01*
X147553606Y-101650836D01*
X147553606Y-101549236D01*
X147350406Y-101549236D01*
X147350406Y-101346035D01*
X147198006Y-101346035D01*
X147198006Y-101142835D01*
X146588405Y-101142835D01*
X146588405Y-100939635D01*
X146232805Y-100939635D01*
X146232805Y-100787234D01*
X145826404Y-100787234D01*
X145826404Y-100584033D01*
X144912003Y-100584033D01*
X144912003Y-100787234D01*
X144708803Y-100787234D01*
X144708803Y-100330033D01*
X144912003Y-100330033D01*
X145267604Y-100330033D01*
X145267604Y-99771232D01*
X146588405Y-99771232D01*
X146994806Y-99771232D01*
X146994806Y-99415631D01*
X146588405Y-99415631D01*
X146588405Y-99771232D01*
X145267604Y-99771232D01*
X145267604Y-99364831D01*
X145470804Y-99364831D01*
X145470804Y-99009230D01*
X145674004Y-99009230D01*
X145674004Y-98806029D01*
X145826404Y-98806029D01*
X145826404Y-98602829D01*
X147198006Y-98602829D01*
X147198006Y-98806029D01*
X147350406Y-98806029D01*
X147350406Y-99009230D01*
X147553606Y-99009230D01*
X147553606Y-99364831D01*
X147756807Y-99364831D01*
X147756807Y-100584033D01*
X147553606Y-100584033D01*
X147553606Y-100787234D01*
X147350406Y-100787234D01*
X147350406Y-101295236D01*
X147553606Y-101295236D01*
X147553606Y-101092035D01*
X147756807Y-101092035D01*
X147756807Y-100888834D01*
X147960007Y-100888834D01*
X147960007Y-100533233D01*
X148112407Y-100533233D01*
X148112407Y-99212430D01*
X147960007Y-99212430D01*
X147960007Y-98856829D01*
X147756807Y-98856829D01*
X147756807Y-98653629D01*
X147553606Y-98653629D01*
X147553606Y-98450428D01*
X147350406Y-98450428D01*
X147350406Y-98298028D01*
X145674004Y-98298028D01*
X145674004Y-98450428D01*
X145470804Y-98450428D01*
X145470804Y-98653629D01*
X145267604Y-98653629D01*
X145267604Y-98856829D01*
X145064403Y-98856829D01*
X145064403Y-99212430D01*
X144912003Y-99212430D01*
X144912003Y-100330033D01*
X144708803Y-100330033D01*
X144708803Y-99161630D01*
X144912003Y-99161630D01*
X144912003Y-98806029D01*
X145064403Y-98806029D01*
X145064403Y-98602829D01*
X145267604Y-98602829D01*
X145267604Y-98399628D01*
X145470804Y-98399628D01*
X145470804Y-98247228D01*
X145674004Y-98247228D01*
X145674004Y-98044028D01*
X147350406Y-98044028D01*
X147350406Y-98247228D01*
X147553606Y-98247228D01*
X147553606Y-98399628D01*
X147756807Y-98399628D01*
X147756807Y-98602829D01*
X147960007Y-98602829D01*
X147960007Y-98806029D01*
X148112407Y-98806029D01*
X148112407Y-99161630D01*
X148315607Y-99161630D01*
X148315607Y-100584033D01*
X148112407Y-100584033D01*
X148112407Y-100939635D01*
X147960007Y-100939635D01*
X147960007Y-101142835D01*
X147756807Y-101142835D01*
X147756807Y-101498436D01*
X148112407Y-101498436D01*
X148315607Y-101498436D01*
X149636409Y-101498436D01*
X149636409Y-101346035D01*
X149484009Y-101346035D01*
X149484009Y-101498436D01*
X149280808Y-101498436D01*
X149280808Y-101346035D01*
X149077608Y-101346035D01*
X149077608Y-101498436D01*
X148874408Y-101498436D01*
X148874408Y-101346035D01*
X148722008Y-101346035D01*
X148722008Y-101498436D01*
X148518807Y-101498436D01*
X148518807Y-101346035D01*
X148315607Y-101346035D01*
X148315607Y-101498436D01*
X148112407Y-101498436D01*
X148112407Y-101295236D01*
X148518807Y-101295236D01*
X149484009Y-101295236D01*
X149636409Y-101295236D01*
X149839609Y-101295236D01*
X149839609Y-101142835D01*
X149636409Y-101142835D01*
X149636409Y-101295236D01*
X149484009Y-101295236D01*
X149484009Y-101142835D01*
X149280808Y-101142835D01*
X149280808Y-101295236D01*
X149077608Y-101295236D01*
X149077608Y-101142835D01*
X148874408Y-101142835D01*
X148874408Y-101295236D01*
X148722008Y-101295236D01*
X148722008Y-101142835D01*
X148518807Y-101142835D01*
X148518807Y-101295236D01*
X148112407Y-101295236D01*
X148112407Y-101092035D01*
X148315607Y-101092035D01*
X148722008Y-101092035D01*
X148874408Y-101092035D01*
X149077608Y-101092035D01*
X149636409Y-101092035D01*
X149636409Y-100939635D01*
X149484009Y-100939635D01*
X149484009Y-101092035D01*
X149280808Y-101092035D01*
X149280808Y-100939635D01*
X149077608Y-100939635D01*
X149077608Y-101092035D01*
X148874408Y-101092035D01*
X148874408Y-100939635D01*
X148722008Y-100939635D01*
X148722008Y-101092035D01*
X148315607Y-101092035D01*
X148315607Y-100888834D01*
X148518807Y-100888834D01*
X148722008Y-100888834D01*
X148874408Y-100888834D01*
X149484009Y-100888834D01*
X149484009Y-100787234D01*
X149280808Y-100787234D01*
X149280808Y-100888834D01*
X149077608Y-100888834D01*
X149077608Y-100787234D01*
X148874408Y-100787234D01*
X148874408Y-100888834D01*
X148722008Y-100888834D01*
X148722008Y-100787234D01*
X148518807Y-100787234D01*
X148518807Y-100888834D01*
X148315607Y-100888834D01*
X148315607Y-100736434D01*
X148518807Y-100736434D01*
X148722008Y-100736434D01*
X148874408Y-100736434D01*
X149077608Y-100736434D01*
X149280808Y-100736434D01*
X149280808Y-100584033D01*
X149077608Y-100584033D01*
X149077608Y-100736434D01*
X148874408Y-100736434D01*
X148874408Y-100584033D01*
X148722008Y-100584033D01*
X148722008Y-100736434D01*
X148518807Y-100736434D01*
X148518807Y-99060030D01*
X148315607Y-99060030D01*
X148315607Y-98653629D01*
X148112407Y-98653629D01*
X148112407Y-98450428D01*
X147960007Y-98298028D01*
X147756807Y-98298028D01*
X147756807Y-98094827D01*
X147553606Y-98094827D01*
X147553606Y-97891627D01*
X145470804Y-97891627D01*
X145470804Y-98094827D01*
X145267604Y-98094827D01*
X145267604Y-98298028D01*
X145064403Y-98298028D01*
X144912003Y-98450428D01*
X144912003Y-98653629D01*
X144708803Y-98653629D01*
X144708803Y-99060030D01*
X144505603Y-99060030D01*
X144505603Y-100380833D01*
X143946802Y-100380833D01*
X143946802Y-100177633D01*
X143540402Y-100177633D01*
X143540402Y-99974432D01*
X143184801Y-99974432D01*
X143184801Y-99822031D01*
X142778401Y-99822031D01*
X142778401Y-99618831D01*
X142422800Y-99618831D01*
X142422800Y-99415631D01*
X142219600Y-99415631D01*
X142219600Y-99212430D01*
X141864000Y-99212430D01*
X141864000Y-99060030D01*
X141457599Y-99060030D01*
X141457599Y-98856829D01*
X141254399Y-98856829D01*
X141254399Y-98653629D01*
X141101999Y-98653629D01*
X141101999Y-98450428D01*
X140695599Y-98450428D01*
X140695599Y-98298028D01*
X140492398Y-98298028D01*
X140492398Y-98094827D01*
X140339997Y-98094827D01*
X140339997Y-98044028D01*
X140492398Y-98044028D01*
X140695599Y-98044028D01*
X140695599Y-98247228D01*
X141101999Y-98247228D01*
X141254399Y-98399628D01*
X141254399Y-98602829D01*
X141457599Y-98602829D01*
X141457599Y-98806029D01*
X141864000Y-98806029D01*
X141864000Y-99009230D01*
X142219600Y-99009230D01*
X142219600Y-99161630D01*
X142422800Y-99161630D01*
X142422800Y-99364831D01*
X142778401Y-99364831D01*
X142778401Y-99568031D01*
X143184801Y-99568031D01*
X143184801Y-99771232D01*
X143743602Y-99771232D01*
X143743602Y-99923632D01*
X144150002Y-99923632D01*
X144150002Y-100126832D01*
X144302403Y-100126832D01*
X144302403Y-98806029D01*
X144505603Y-98806029D01*
X144505603Y-98399628D01*
X144708803Y-98399628D01*
X144708803Y-98247228D01*
X144912003Y-98247228D01*
X145064403Y-98044028D01*
X145064403Y-97891627D01*
X144912003Y-97891627D01*
X144912003Y-97688426D01*
X144708803Y-97688426D01*
X144708803Y-97637627D01*
X145064403Y-97637627D01*
X145674004Y-97637627D01*
X145674004Y-97536026D01*
X145470804Y-97536026D01*
X145470804Y-97637627D01*
X145267604Y-97637627D01*
X145267604Y-97536026D01*
X145064403Y-97536026D01*
X145064403Y-97637627D01*
X144708803Y-97637627D01*
X144708803Y-97485226D01*
X144912003Y-97485226D01*
X145064403Y-97485226D01*
X145267604Y-97485226D01*
X145470804Y-97485226D01*
X145674004Y-97485226D01*
X145826404Y-97485226D01*
X145826404Y-97332826D01*
X145674004Y-97332826D01*
X145674004Y-97485226D01*
X145470804Y-97485226D01*
X145470804Y-97332826D01*
X145267604Y-97332826D01*
X145267604Y-97485226D01*
X145064403Y-97485226D01*
X145064403Y-97332826D01*
X144912003Y-97332826D01*
X144912003Y-97485226D01*
X144708803Y-97485226D01*
X144708803Y-97332826D01*
X144505603Y-97332826D01*
X144505603Y-97282026D01*
X145064403Y-97282026D01*
X145267604Y-97282026D01*
X145470804Y-97282026D01*
X145674004Y-97282026D01*
X145674004Y-97129625D01*
X145470804Y-97129625D01*
X145470804Y-97282026D01*
X145267604Y-97282026D01*
X145267604Y-97129625D01*
X145064403Y-97129625D01*
X145064403Y-97282026D01*
X144505603Y-97282026D01*
X144505603Y-97078825D01*
X144912003Y-97078825D01*
X145064403Y-97078825D01*
X145267604Y-97078825D01*
X145470804Y-97078825D01*
X145674004Y-97078825D01*
X145826404Y-97078825D01*
X145826404Y-96926424D01*
X145674004Y-96926424D01*
X145674004Y-97078825D01*
X145470804Y-97078825D01*
X145470804Y-96926424D01*
X145267604Y-96926424D01*
X145267604Y-97078825D01*
X145064403Y-97078825D01*
X145064403Y-96926424D01*
X144912003Y-96926424D01*
X144912003Y-97078825D01*
X144505603Y-97078825D01*
X144505603Y-96926424D01*
X144302403Y-96926424D01*
X144251604Y-96875625D01*
X144708803Y-96875625D01*
X144912003Y-96875625D01*
X145064403Y-96875625D01*
X145267604Y-96875625D01*
X145470804Y-96875625D01*
X145674004Y-96875625D01*
X145674004Y-96774024D01*
X145470804Y-96774024D01*
X145470804Y-96875625D01*
X145267604Y-96875625D01*
X145267604Y-96774024D01*
X145064403Y-96774024D01*
X145064403Y-96875625D01*
X144912003Y-96875625D01*
X144912003Y-96774024D01*
X144708803Y-96774024D01*
X144708803Y-96875625D01*
X144251604Y-96875625D01*
X144150002Y-96774024D01*
X144150002Y-96723224D01*
X144505603Y-96723224D01*
X145826404Y-96723224D01*
X145826404Y-96570824D01*
X145674004Y-96570824D01*
X145674004Y-96723224D01*
X145470804Y-96723224D01*
X145470804Y-96570824D01*
X145267604Y-96570824D01*
X145267604Y-96723224D01*
X145064403Y-96723224D01*
X145064403Y-96570824D01*
X144912003Y-96570824D01*
X144912003Y-96723224D01*
X144708803Y-96723224D01*
X144708803Y-96570824D01*
X144505603Y-96570824D01*
X144505603Y-96723224D01*
X144150002Y-96723224D01*
X144150002Y-96520024D01*
X144708803Y-96520024D01*
X144912003Y-96520024D01*
X145064403Y-96520024D01*
X145267604Y-96520024D01*
X145470804Y-96520024D01*
X145674004Y-96520024D01*
X145674004Y-96367623D01*
X145470804Y-96367623D01*
X145470804Y-96520024D01*
X145267604Y-96520024D01*
X145267604Y-96367623D01*
X145064403Y-96367623D01*
X145064403Y-96520024D01*
X144912003Y-96520024D01*
X144912003Y-96367623D01*
X144708803Y-96367623D01*
X144708803Y-96520024D01*
X144150002Y-96520024D01*
X144150002Y-96367623D01*
X143946802Y-96367623D01*
X143946802Y-96316823D01*
X144505603Y-96316823D01*
X144708803Y-96316823D01*
X144912003Y-96316823D01*
X145064403Y-96316823D01*
X145267604Y-96316823D01*
X145470804Y-96316823D01*
X145470804Y-96164423D01*
X145267604Y-96164423D01*
X145267604Y-96316823D01*
X145064403Y-96316823D01*
X145064403Y-96164423D01*
X144912003Y-96164423D01*
X144912003Y-96316823D01*
X144708803Y-96316823D01*
X144708803Y-96164423D01*
X144505603Y-96164423D01*
X144505603Y-96316823D01*
X143946802Y-96316823D01*
X143946802Y-96164423D01*
X143540402Y-96164423D01*
X143540402Y-96012023D01*
X142981601Y-96012023D01*
X142981601Y-95808822D01*
X142778401Y-95808822D01*
X142778401Y-96012023D01*
X142219600Y-96012023D01*
X142219600Y-96113623D01*
X142422800Y-96113623D01*
X142422800Y-96316823D01*
X142778401Y-96316823D01*
X142778401Y-96520024D01*
X142981601Y-96520024D01*
X142981601Y-96723224D01*
X143388001Y-96723224D01*
X143388001Y-96875625D01*
X143743602Y-96875625D01*
X143743602Y-97078825D01*
X143946802Y-97078825D01*
X143946802Y-97282026D01*
X144150002Y-97282026D01*
X144150002Y-97891627D01*
X143946802Y-97891627D01*
X143946802Y-98094827D01*
X143743602Y-98094827D01*
X143743602Y-98298028D01*
X143540402Y-98298028D01*
X143540402Y-98653629D01*
X142219600Y-98653629D01*
X142219600Y-98450428D01*
X141864000Y-98450428D01*
X141864000Y-98298028D01*
X141457599Y-98298028D01*
X141457599Y-98094827D01*
X141101999Y-98094827D01*
X141101999Y-97891627D01*
X140898799Y-97891627D01*
X140898799Y-97688426D01*
X140695599Y-97688426D01*
X140695599Y-97536026D01*
X140492398Y-97536026D01*
X140492398Y-98044028D01*
X140339997Y-98044028D01*
X140339997Y-97891627D01*
X139730397Y-97891627D01*
X139730397Y-97688426D01*
X139374797Y-97688426D01*
X139374797Y-97536026D01*
X138968397Y-97536026D01*
X138968397Y-97332826D01*
X137850795Y-97332826D01*
X137850795Y-97536026D01*
X137291994Y-97536026D01*
X137291994Y-97688426D01*
X137088794Y-97688426D01*
X137088794Y-97840827D01*
X137647595Y-97840827D01*
X137647595Y-98044028D01*
X137850795Y-98044028D01*
X137850795Y-98247228D01*
X138206395Y-98247228D01*
X138206395Y-98399628D01*
X138612796Y-98399628D01*
X138612796Y-98602829D01*
X138968397Y-98602829D01*
X138968397Y-98806029D01*
X139171597Y-98806029D01*
X139171597Y-99009230D01*
X139577997Y-99009230D01*
X139730397Y-99161630D01*
X139730397Y-99364831D01*
X140136797Y-99364831D01*
X140136797Y-99568031D01*
X140339997Y-99568031D01*
X140339997Y-99771232D01*
X140492398Y-99923632D01*
X140695599Y-99923632D01*
X140695599Y-100126832D01*
X140898799Y-100126832D01*
X140898799Y-100330033D01*
X141101999Y-100330033D01*
X141101999Y-100533233D01*
X141254399Y-100533233D01*
X141254399Y-100736434D01*
X141457599Y-100736434D01*
X141457599Y-100888834D01*
X141660799Y-100888834D01*
X141660799Y-101092035D01*
X141864000Y-101092035D01*
X141864000Y-101295236D01*
X142219600Y-101295236D01*
X142219600Y-101498436D01*
X142422800Y-101498436D01*
X142422800Y-101650836D01*
X142626000Y-101650836D01*
X142626000Y-101854037D01*
X142778401Y-101854037D01*
X142778401Y-102057237D01*
X143184801Y-102057237D01*
X143184801Y-102260437D01*
X143743602Y-102260437D01*
X143743602Y-102412838D01*
X144505603Y-102412838D01*
X144505603Y-102260437D01*
X144708803Y-102260437D01*
X144708803Y-102057237D01*
X145064403Y-102057237D01*
X145064403Y-102311238D01*
X144912003Y-102463639D01*
X144505603Y-102463639D01*
X144505603Y-102666839D01*
X138968397Y-102666839D01*
X138968397Y-102463639D01*
X138409595Y-102463639D01*
X138409595Y-102311238D01*
X137647595Y-102311238D01*
X137647595Y-102260437D01*
X138612796Y-102260437D01*
X139171597Y-102260437D01*
X139171597Y-102412838D01*
X141864000Y-102412838D01*
X142016400Y-102260437D01*
X142016400Y-102108037D01*
X141864000Y-102108037D01*
X141864000Y-101904836D01*
X141457599Y-101904836D01*
X141457599Y-101701636D01*
X141254399Y-101701636D01*
X141254399Y-101549236D01*
X139933597Y-101549236D01*
X139933597Y-101701636D01*
X139171597Y-101701636D01*
X139171597Y-101904836D01*
X138968397Y-101904836D01*
X138968397Y-102108037D01*
X138612796Y-102108037D01*
X138612796Y-102260437D01*
X137647595Y-102260437D01*
X137647595Y-102108037D01*
X137291994Y-102108037D01*
X137291994Y-101904836D01*
X136885594Y-101904836D01*
X136885594Y-101701636D01*
X136682394Y-101701636D01*
X136682394Y-101549236D01*
X136326794Y-101549236D01*
X136326794Y-102057237D01*
X136529994Y-102057237D01*
X136529994Y-102412838D01*
X136682394Y-102412838D01*
X136682394Y-102616038D01*
X136885594Y-102616038D01*
X136885594Y-102819239D01*
X137088794Y-102819239D01*
X137088794Y-103022440D01*
X137291994Y-103022440D01*
X137291994Y-103174840D01*
X138053995Y-103174840D01*
X138053995Y-103378040D01*
X138815996Y-103378040D01*
X138815996Y-103581241D01*
X139171597Y-103581241D01*
X139171597Y-103784441D01*
X140136797Y-103784441D01*
X140136797Y-103936841D01*
X140695599Y-103936841D01*
X140695599Y-104140042D01*
X141254399Y-104140042D01*
X141254399Y-104546443D01*
X141660799Y-104546443D01*
X141660799Y-104698844D01*
X142219600Y-104698844D01*
X142219600Y-104902044D01*
X142626000Y-104902044D01*
X142626000Y-105105244D01*
X142778401Y-105105244D01*
X142778401Y-105359246D01*
X141101999Y-105359246D01*
X141101999Y-104952844D01*
X140898799Y-104952844D01*
X140898799Y-104749644D01*
X140695599Y-104749644D01*
X140695599Y-104190843D01*
X140136797Y-104190843D01*
X140136797Y-103987641D01*
X139171597Y-103987641D01*
X139171597Y-103835242D01*
X138815996Y-103835242D01*
X138815996Y-103632041D01*
X138053995Y-103632041D01*
X138053995Y-103428840D01*
X137291994Y-103428840D01*
X137291994Y-103225640D01*
X137088794Y-103225640D01*
X137088794Y-103073239D01*
X136885594Y-103073239D01*
X136885594Y-102870039D01*
X136682394Y-102870039D01*
X136682394Y-102666839D01*
X136529994Y-102666839D01*
X136529994Y-102463639D01*
X136326794Y-102463639D01*
X136326794Y-102108037D01*
X136123593Y-102108037D01*
X136123593Y-101498436D01*
X136682394Y-101498436D01*
X136885594Y-101498436D01*
X136885594Y-101650836D01*
X137291994Y-101650836D01*
X137291994Y-101854037D01*
X137850795Y-101854037D01*
X137850795Y-102057237D01*
X138206395Y-102057237D01*
X138206395Y-101854037D01*
X138612796Y-101854037D01*
X138612796Y-101650836D01*
X138968397Y-101650836D01*
X138968397Y-101549236D01*
X137088794Y-101549236D01*
X137088794Y-101346035D01*
X136682394Y-101346035D01*
X136682394Y-101498436D01*
X136123593Y-101498436D01*
X136123593Y-101295236D01*
X136326794Y-101295236D01*
X136326794Y-101092035D01*
X137088794Y-101092035D01*
X137088794Y-101295236D01*
X139730397Y-101295236D01*
X139577997Y-101142835D01*
X139577997Y-100939635D01*
X139374797Y-100939635D01*
X139374797Y-100787234D01*
X139171597Y-100787234D01*
X139171597Y-100584033D01*
X138968397Y-100584033D01*
X138968397Y-100380833D01*
X138815996Y-100380833D01*
X138815996Y-100177633D01*
X138612796Y-100177633D01*
X138612796Y-99974432D01*
X138409595Y-99974432D01*
X138409595Y-99822031D01*
X138206395Y-99822031D01*
X138206395Y-99618831D01*
X138053995Y-99618831D01*
X138053995Y-99415631D01*
X137850795Y-99415631D01*
X137850795Y-99212430D01*
X137647595Y-99212430D01*
X137647595Y-99060030D01*
X137444395Y-99060030D01*
X137444395Y-98856829D01*
X137291994Y-98856829D01*
X137291994Y-98653629D01*
X137088794Y-98653629D01*
X137088794Y-98450428D01*
X136885594Y-98450428D01*
X136885594Y-98298028D01*
X136682394Y-98298028D01*
X136682394Y-97637627D01*
X136885594Y-97637627D01*
X136885594Y-97485226D01*
X137088794Y-97485226D01*
X137088794Y-97282026D01*
X137647595Y-97282026D01*
X137647595Y-97078825D01*
X138968397Y-97078825D01*
X138968397Y-97282026D01*
X139577997Y-97282026D01*
X139577997Y-97485226D01*
X139933597Y-97485226D01*
X139933597Y-97637627D01*
X140339997Y-97637627D01*
X140339997Y-97282026D01*
X140492398Y-97282026D01*
X140695599Y-97282026D01*
X140898799Y-97282026D01*
X140898799Y-97485226D01*
X141101999Y-97485226D01*
X141254399Y-97637627D01*
X141254399Y-97840827D01*
X141660799Y-97840827D01*
X141660799Y-98044028D01*
X142016400Y-98044028D01*
X142016400Y-98247228D01*
X142422800Y-98247228D01*
X142422800Y-98399628D01*
X143388001Y-98399628D01*
X143388001Y-98044028D01*
X143540402Y-98044028D01*
X143540402Y-97840827D01*
X143743602Y-97840827D01*
X143743602Y-97637627D01*
X143946802Y-97637627D01*
X143946802Y-97536026D01*
X143743602Y-97536026D01*
X143743602Y-97332826D01*
X143540402Y-97332826D01*
X143540402Y-97129625D01*
X143184801Y-97129625D01*
X143184801Y-96926424D01*
X142778401Y-96926424D01*
X142626000Y-96774024D01*
X142626000Y-96570824D01*
X142219600Y-96570824D01*
X142219600Y-96774024D01*
X142016400Y-96774024D01*
X142016400Y-96926424D01*
X141660799Y-96926424D01*
X141660799Y-97129625D01*
X141457599Y-97129625D01*
X141457599Y-97332826D01*
X141254399Y-97332826D01*
X141254399Y-97078825D01*
X141457599Y-97078825D01*
X141457599Y-96875625D01*
X141660799Y-96875625D01*
X141660799Y-96723224D01*
X142016400Y-96723224D01*
X142016400Y-96520024D01*
X142219600Y-96520024D01*
X142219600Y-96367623D01*
X142016400Y-96367623D01*
X142016400Y-96164423D01*
X141864000Y-96164423D01*
X141864000Y-96367623D01*
X141660799Y-96367623D01*
X141660799Y-96570824D01*
X141254399Y-96570824D01*
X141254399Y-96774024D01*
X140898799Y-96774024D01*
X140898799Y-97129625D01*
X140695599Y-97129625D01*
X140695599Y-97282026D01*
X140492398Y-97282026D01*
X140492398Y-96875625D01*
X140695599Y-96875625D01*
X140695599Y-96520024D01*
X141101999Y-96520024D01*
X141101999Y-96316823D01*
X141254399Y-96316823D01*
X141254399Y-96113623D01*
X141660799Y-96113623D01*
X141660799Y-95961222D01*
X142219600Y-95961222D01*
X142219600Y-95758022D01*
X142778401Y-95758022D01*
X143540402Y-95758022D01*
X143743602Y-95758022D01*
X143743602Y-95961222D01*
X144302403Y-95961222D01*
X144302403Y-96113623D01*
X144505603Y-96113623D01*
X144505603Y-95961222D01*
X144708803Y-95961222D01*
X144708803Y-96113623D01*
X144912003Y-96113623D01*
X144912003Y-95961222D01*
X146994806Y-95961222D01*
X146994806Y-95808822D01*
X146436005Y-95808822D01*
X146436005Y-95605621D01*
X143540402Y-95605621D01*
X143540402Y-95758022D01*
X142778401Y-95758022D01*
X142778401Y-95554821D01*
X143540402Y-95554821D01*
X143540402Y-95351621D01*
X146588405Y-95351621D01*
X146588405Y-95554821D01*
X146994806Y-95554821D01*
X146994806Y-95758022D01*
X147553606Y-95758022D01*
X147553606Y-95961222D01*
X147960007Y-95961222D01*
X147960007Y-96113623D01*
X148315607Y-96113623D01*
X148315607Y-96316823D01*
X148518807Y-96316823D01*
X148518807Y-96520024D01*
X148722008Y-96520024D01*
X148722008Y-96774024D01*
X148518807Y-96774024D01*
X148518807Y-96570824D01*
X148112407Y-96570824D01*
X148112407Y-96367623D01*
X147960007Y-96367623D01*
X147960007Y-96164423D01*
X145674004Y-96164423D01*
X145826404Y-96316823D01*
X145826404Y-96520024D01*
X146029604Y-96520024D01*
G36*
X136529994Y-96164423D02*
G01*
X136326794Y-96164423D01*
X136326794Y-96367623D01*
X135920393Y-96367623D01*
X135920393Y-96570824D01*
X135767992Y-96570824D01*
X135767992Y-96774024D01*
X135564792Y-96774024D01*
X135564792Y-96926424D01*
X135361592Y-96926424D01*
X135361592Y-97332826D01*
X135158392Y-97332826D01*
X135158392Y-97536026D01*
X135005992Y-97536026D01*
X135005992Y-97078825D01*
X135158392Y-97078825D01*
X135158392Y-96723224D01*
X135361592Y-96723224D01*
X135361592Y-96520024D01*
X135564792Y-96520024D01*
X135564792Y-96316823D01*
X135767992Y-96316823D01*
X135767992Y-96113623D01*
X136123593Y-96113623D01*
X136123593Y-95961222D01*
X136529994Y-95961222D01*
X136529994Y-96164423D01*
G37*
X136529994Y-96164423D02*
X136326794Y-96164423D01*
X136326794Y-96367623D01*
X135920393Y-96367623D01*
X135920393Y-96570824D01*
X135767992Y-96570824D01*
X135767992Y-96774024D01*
X135564792Y-96774024D01*
X135564792Y-96926424D01*
X135361592Y-96926424D01*
X135361592Y-97332826D01*
X135158392Y-97332826D01*
X135158392Y-97536026D01*
X135005992Y-97536026D01*
X135005992Y-97078825D01*
X135158392Y-97078825D01*
X135158392Y-96723224D01*
X135361592Y-96723224D01*
X135361592Y-96520024D01*
X135564792Y-96520024D01*
X135564792Y-96316823D01*
X135767992Y-96316823D01*
X135767992Y-96113623D01*
X136123593Y-96113623D01*
X136123593Y-95961222D01*
X136529994Y-95961222D01*
X136529994Y-96164423D01*
G36*
X136529994Y-96926424D02*
G01*
X136123593Y-96926424D01*
X136123593Y-97129625D01*
X135920393Y-97129625D01*
X135920393Y-97536026D01*
X135767992Y-97536026D01*
X135767992Y-97078825D01*
X135920393Y-97078825D01*
X135920393Y-96875625D01*
X136123593Y-96875625D01*
X136123593Y-96723224D01*
X136529994Y-96723224D01*
X136529994Y-96926424D01*
G37*
X136529994Y-96926424D02*
X136123593Y-96926424D01*
X136123593Y-97129625D01*
X135920393Y-97129625D01*
X135920393Y-97536026D01*
X135767992Y-97536026D01*
X135767992Y-97078825D01*
X135920393Y-97078825D01*
X135920393Y-96875625D01*
X136123593Y-96875625D01*
X136123593Y-96723224D01*
X136529994Y-96723224D01*
X136529994Y-96926424D01*
G36*
X136529994Y-95402421D02*
G01*
X135920393Y-95402421D01*
X135920393Y-95605621D01*
X135564792Y-95605621D01*
X135564792Y-95808822D01*
X135158392Y-95808822D01*
X135158392Y-96012023D01*
X135005992Y-96164423D01*
X134802792Y-96164423D01*
X134802792Y-96570824D01*
X134599592Y-96570824D01*
X134599592Y-96926424D01*
X134396390Y-96926424D01*
X134396390Y-97536026D01*
X134243991Y-97536026D01*
X134243991Y-96723224D01*
X134396390Y-96723224D01*
X134396390Y-96316823D01*
X134599592Y-96316823D01*
X134599592Y-95961222D01*
X134802792Y-95961222D01*
X134802792Y-95758022D01*
X135005992Y-95758022D01*
X135005992Y-95554821D01*
X135361592Y-95554821D01*
X135361592Y-95351621D01*
X135767992Y-95351621D01*
X135767992Y-95199221D01*
X136529994Y-95199221D01*
X136529994Y-95402421D01*
G37*
X136529994Y-95402421D02*
X135920393Y-95402421D01*
X135920393Y-95605621D01*
X135564792Y-95605621D01*
X135564792Y-95808822D01*
X135158392Y-95808822D01*
X135158392Y-96012023D01*
X135005992Y-96164423D01*
X134802792Y-96164423D01*
X134802792Y-96570824D01*
X134599592Y-96570824D01*
X134599592Y-96926424D01*
X134396390Y-96926424D01*
X134396390Y-97536026D01*
X134243991Y-97536026D01*
X134243991Y-96723224D01*
X134396390Y-96723224D01*
X134396390Y-96316823D01*
X134599592Y-96316823D01*
X134599592Y-95961222D01*
X134802792Y-95961222D01*
X134802792Y-95758022D01*
X135005992Y-95758022D01*
X135005992Y-95554821D01*
X135361592Y-95554821D01*
X135361592Y-95351621D01*
X135767992Y-95351621D01*
X135767992Y-95199221D01*
X136529994Y-95199221D01*
X136529994Y-95402421D01*
M02*
