M48
; DRILL file {KiCad 6.0.4-6f826c9f35~116~ubuntu21.10.1} date Tue 26 Jul 2022 01:19:54 PM MDT
; FORMAT={-:-/ absolute / metric / decimal}
; #@! TF.CreationDate,2022-07-26T13:19:54-06:00
; #@! TF.GenerationSoftware,Kicad,Pcbnew,6.0.4-6f826c9f35~116~ubuntu21.10.1
; #@! TF.FileFunction,Plated,1,2,PTH
FMAT,2
METRIC
; #@! TA.AperFunction,Plated,PTH,ViaDrill
T1C0.400
; #@! TA.AperFunction,Plated,PTH,ComponentDrill
T2C0.800
; #@! TA.AperFunction,Plated,PTH,ComponentDrill
T3C1.000
%
G90
G05
T1
X139.7Y-88.9
X139.7Y-96.52
X142.24Y-106.68
X149.86Y-78.74
T2
X134.62Y-93.98
X134.62Y-104.14
X143.947Y-93.98
X143.947Y-104.14
X152.4Y-93.98
X152.4Y-104.14
T3
X129.83Y-82.399
X129.83Y-88.899
X132.512Y-109.417
X134.33Y-82.399
X134.33Y-88.899
X135.052Y-109.417
X137.592Y-109.417
X140.122Y-81.28
X140.122Y-83.82
X140.132Y-109.417
X142.662Y-81.28
X142.662Y-83.82
X142.672Y-109.417
X145.202Y-81.28
X145.202Y-83.82
X145.212Y-109.417
X147.742Y-81.28
X147.742Y-83.82
X147.752Y-109.417
X150.292Y-109.417
X152.832Y-109.417
X152.98Y-82.399
X152.98Y-88.899
X155.372Y-109.417
X157.48Y-82.399
X157.48Y-88.899
T0
M30
